<?xml version="1.0" encoding="UTF-8"?>
<svg id="Capa_1" data-name="Capa 1" xmlns="http://www.w3.org/2000/svg" viewBox="0 0 1825 306.66">
  <defs>
    <style>
      .cls-1 {
        fill: #e42313;
      }

      .cls-2 {
        fill: #54616c;
      }
    </style>
  </defs>
  <g>
    <g>
      <path class="cls-2" d="M271.45,164.91s-.09-.07-.13-.1c-3.86-2.92-8.03-5.31-12.4-7.12-4.29-1.77-8.65-3.05-12.97-3.8-4.24-.73-8.26-1.11-11.97-1.11-10.88,0-20.62,2.04-28.95,6.07-8.33,4.02-15.36,9.54-20.88,16.39-5.48,6.78-9.62,14.8-12.29,23.83-2.62,8.84-3.95,18.34-3.95,28.22s1.37,19.4,4.08,28.27c2.76,9.01,6.92,17.05,12.38,23.88,5.54,6.95,12.56,12.55,20.86,16.65,8.34,4.13,18.19,6.22,29.26,6.22,9.92,0,19.19-1.78,27.54-5.31,3.49-1.47,6.63-3.33,9.42-5.55v8.04h33.2V105.49h-33.2v59.42Zm-1.36,45.51c1.41,5.56,2.12,11.4,2.12,17.38,0,5.66-.68,11.31-2.01,16.8-1.28,5.25-3.35,9.98-6.18,14.07-2.73,3.95-6.31,7.19-10.64,9.64-4.21,2.39-9.54,3.6-15.83,3.6s-11.27-1.16-15.62-3.44c-4.37-2.29-8-5.41-10.79-9.27-2.91-4.03-5.11-8.7-6.53-13.89h0c-1.48-5.34-2.22-10.89-2.22-16.5,0-6.02,.64-11.97,1.91-17.67,1.21-5.44,3.19-10.32,5.88-14.5,2.57-4.01,5.93-7.15,10.27-9.61,4.22-2.39,9.55-3.6,15.84-3.6s12.06,1.19,16.48,3.54c4.48,2.39,8.17,5.56,10.95,9.42,2.88,3.98,5.03,8.7,6.38,14.02Z"/>
      <rect class="cls-1" x="321.87" y="105.49" width="33.2" height="38.06"/>
      <rect class="cls-1" x="321.87" y="152.78" width="34.17" height="149.52"/>
      <path class="cls-2" d="M471.87,239.7l-.66,4.98c-1.19,8.95-4.25,15.6-9.34,20.33-5,4.65-11.96,6.9-21.27,6.9-5.8,0-10.81-1.14-14.87-3.38-4.17-2.3-7.45-5.26-10.04-9.06-2.67-3.94-4.68-8.52-5.95-13.64-1.33-5.32-2-10.87-2-16.5,0-6.21,.64-12.29,1.92-18.07,1.2-5.5,3.21-10.39,5.96-14.55,2.65-4.02,6.13-7.17,10.62-9.63,4.4-2.42,10.1-3.64,16.92-3.64,7.87,0,13.86,1.82,18.29,5.55,4.48,3.78,7.36,9.08,8.81,16.19l.94,4.59h33.57l-.69-6.36c-.93-8.58-3.24-16.16-6.85-22.53-3.61-6.37-8.3-11.74-13.96-15.96-5.59-4.16-12.08-7.27-19.3-9.24-7.02-1.92-14.62-2.89-22.6-2.89-11.2,0-21.22,2.03-29.78,6.04-8.61,4.02-15.87,9.63-21.58,16.66-5.66,6.95-9.92,15.19-12.68,24.48-2.7,9.11-4.07,18.99-4.07,29.37s1.43,20.19,4.24,28.97c2.87,8.98,7.21,16.85,12.9,23.37,5.76,6.61,13,11.76,21.54,15.33,8.43,3.51,18.16,5.3,28.92,5.3,18.26,0,33.01-4.97,43.86-14.77,10.77-9.73,17.53-23.62,20.11-41.26l.96-6.57h-33.9Z"/>
    </g>
    <g>
      <path class="cls-2" d="M70.33,206.96c.63,0,1.14-.51,1.14-1.15s-.51-1.14-1.14-1.14-1.14,.51-1.14,1.14,.51,1.15,1.14,1.15Zm0-1.29c.08,0,.14,.06,.14,.14,0,.16-.29,.17-.29,0,0-.08,.06-.14,.14-.14Z"/>
      <path class="cls-2" d="M73.12,183.76c-.41,0-.75,.34-.75,.75s.33,.75,.75,.75,.75-.33,.75-.75-.33-.75-.75-.75Zm-.25,.75c0-.14,.11-.25,.25-.25s.25,.11,.25,.25c0,.27-.5,.27-.5,0Z"/>
      <path class="cls-2" d="M56.86,260.5l.09,.02s.04-.16,.09-.35c1.03-1.91,1.66-4.06,1.66-6.38,0-.56-.1-1.09-.16-1.63,.02-.3,.04-.61,.04-.88,0-2.61-2.43-5.54-3.72-6.92-.07-.08-.14-.15-.22-.22-.3-.31-.53-.53-.57-.57l-.11-.1h.05s-.24-.17-.24-.17l-.44-.41-.04,.08-.34-.23c-.14-.1-.28-.2-.43-.29l-.09-.06c-.06-.04-1.49-1-2.97-1.57-.93-.36-2.11-.43-2.93-.43-.44-.04-.86-.13-1.31-.13-2.3,0-4.44,.64-6.34,1.66-.95,.44-3.57,1.85-4.77,4.23-1.49,2.18-2.37,4.81-2.37,7.64,0,5.7,3.53,10.56,8.5,12.55h-10.48l-4.28-12.16h-.04c-.43-1.36-1.66-2.38-3.17-2.38s-2.74,1.02-3.17,2.39h-.04s-4.28,12.14-4.28,12.14h-1.38v7.66H51.42v11.92h7.73v-19.58h-8.94c2.83-1.14,5.15-3.22,6.66-5.84Zm-11.63,5.27c-.58,0-1.13-.09-1.68-.17,.19-.57,.26-1.2,.31-1.81,.08-.87,.15-1.7,.57-2.19,.26-.3,.55-.57,.84-.84,.99-.92,2.11-1.96,2.11-4.11,0-1.79-1.74-2.6-2.78-3.08-.26-.12-.49-.22-.63-.32-.78-.55-2.08-1-3.16-1.12-.9-1.81-1.59-3.66-1.63-4.38,.24,.11,.62,.41,.82,.58,.45,.36,.84,.68,1.31,.68,.91,0,1.43-.71,1.84-1.29,.46-.64,.78-1.03,1.36-1.03h.78v-.78c0-1.79-.29-2.85-.87-3.13l-.35-.08c-.51,0-.97,.06-1.4,.12-.76,.1-1.25,.15-1.77-.16,1.31-.52,2.72-.82,4.2-.83l.18,.08c.82,.39,1.15,1.22,1.44,1.96,.27,.7,.58,1.49,1.43,1.49,1.06,0,1.82-.47,2.49-.88,.41-.25,.82-.47,1.27-.6,.23,.16,.43,.36,.65,.54-.57,1.31-1.69,4.46-.87,7.77l.13,.52,.53,.06c.86,.1,2.79-.08,3.65-.17,.04,.22,0,.63,0,.85-.01,.2-.03,.38-.03,.55,0,1.41-.37,4.7-.5,5.82-2.07,3.55-5.86,5.96-10.24,5.96Zm-3.05-6.04c-.19-1.04-.72-1.69-1.19-2.25-.71-.86-1.28-1.55-.68-3.81h0c.83,0,2.11,.4,2.75,.85,.2,.14,.52,.3,.89,.47,1.03,.48,1.88,.93,1.88,1.67,0,1.46-.71,2.13-1.61,2.97-.32,.3-.65,.61-.95,.95-.75,.87-.86,2.04-.95,3.07,0,.08-.01,.17-.02,.25-.16-1.03-.21-2.52-.09-3.97v-.1s-.01-.1-.01-.1Zm-3.69-8.86c-.2-.09-.4-.17-.59-.26-1.83-.78-3.02-1.39-2.78-2.68h0c.06-.33,.17-.65,.31-.95,1.02-1.47,2.37-2.67,3.92-3.56,1.26,1.24,2.45,1.08,3.52,.93,.22-.03,.46-.06,.7-.08,.05,.26,.1,.63,.12,.98-.9,.29-1.44,1.03-1.82,1.56-.16,.22-.46,.64-.43,.67-.09-.04-.32-.23-.48-.36-.66-.53-1.88-1.51-3.01-.51-.56,.64-.38,2.07,.53,4.25Zm11.7-7.94c-.13,.07-.25,.15-.37,.22-.52,.32-.94,.58-1.46,.64-.06-.13-.14-.33-.2-.49-.14-.37-.32-.81-.58-1.25,.92,.19,1.78,.5,2.61,.88Zm6.44,8.15l-.2-.09-.22,.03c-.63,.07-2.18,.23-3.14,.24-.39-2.3,.25-4.52,.72-5.75,1.5,1.57,2.58,3.53,3.06,5.73-.07-.05-.14-.11-.22-.15Zm-23.32,2.71c0-1.39,.28-2.7,.72-3.94,.74,1.1,2.18,1.73,3.26,2.19,.57,.24,1.51,.65,1.62,.86-.97,3.32,.05,4.57,.88,5.57,.39,.48,.71,.86,.84,1.45-.09,1.24-.16,3.44,.3,5.01-4.45-1.74-7.63-6.06-7.63-11.14Zm-8.4,3.43l1.84,5.22-3.09-4.18c.51-.23,.92-.61,1.25-1.05Zm-2.63-3.86c1,0,1.81,.82,1.81,1.83s-.81,1.83-1.81,1.83-1.81-.82-1.81-1.83,.81-1.83,1.81-1.83Zm-2.63,3.85c.34,.44,.74,.82,1.25,1.05l-3.09,4.18,1.84-5.23Zm2.63,1.81l5.42,7.31h-10.83l5.42-7.31Zm35.29,25.34h-4.62v-11.92H14.99v-4.55H57.59v16.47Z"/>
      <path class="cls-2" d="M14.32,226.68l3.15-1.74,11.54,29.12,1.45-.57-7.58-19.13,6.28,12.13,1.38-.72-6.33-12.24,4.8,7.21,1.29-.86-5.2-7.8,3.73,4.43,1.19-1-3.92-4.66,6.72,6.35,1.07-1.13-6.43-6.08,10.15,7.59,.93-1.24-9.53-7.13,16.76,9.84,.79-1.34-25.82-15.16,2.32-2.22-3.74-.52-1.61-3.48-1.63,3.53-3.78,.46,2.76,2.61-.74,3.76Zm.21-5.63l2.22-.27,.96-2.07,.93,2.01,2.24,.31-1.58,1.51,.4,2.28-.76-.42-.12-.29-.24,.1-.91-.5-1.95,1.07,.43-2.2-1.61-1.52Z"/>
      <path class="cls-2" d="M132.78,268.22s-.02-.02-.02-.04c0-.03,0-.06,0-.09-.03-.15-.12-.27-.22-.38,0,0,0-.03-.02-.04l-1.3-1.19c-.03-.82,.07-1.93,.16-2.7,.13-.26,.26-.51,.41-.76,.12-.2,.14-.43,.07-.65-.07-.21-.24-.39-.45-.47l-7.07-2.79v-21.08s-.69-.09-.69-.09c-.05,0-1.18-.17-1.85-1.73l-.08,.02,.03-.64-1.08,.38c-1.27,.45-2.33-.06-3.67-.71-1.25-.6-2.66-1.28-4.52-1.28-.48,0-1,.05-1.52,.12,.41-.58,.62-1.04,.65-1.09l.42-1.03-.94-.04c.46-.62,.76-1.42,.42-2.31-.22-.35-.39-.42-1.14-.34,.1-.7,.11-1.6-.27-2.35l-.33-.65-1.28,.53c-1.01-2.3-3.18-2.61-3.29-2.63l-.14-.02-.13,.03c-.11,.02-2.31,.54-3.15,2.6l-1.23-.52-.33,.64c-.38,.76-.37,1.65-.27,2.36-.74-.07-.94,.03-1.2,.48-.31,.82,0,1.57,.45,2.17l-.84,.03,.34,.99c.02,.07,.3,.79,.95,1.61-.1,0-.2-.01-.3-.01-1.36,0-2.97,.41-4.67,.85-1.91,.49-4.08,1.05-6.13,1.05h-.78v.67c-.65,2.75-2.44,3.78-2.51,3.82l-.41,.22v15.85l-3.17,3.24c-.2,.13-.49,.54-.46,2.27-.17,.03-.34,.09-.46,.23l-3.27,3.71c-.84,.96-.23,5.25-.15,5.6,.06,.25,.23,.46,.47,.55,2.54,1.02,36.71,11.77,39.02,12.5,.12,.06,.24,.1,.38,.1,.07,0,.14,0,.21-.03q.24-.07,15.16-16.44s0,0,0,0c.12-.14,.17-.31,.18-.49,0-.02,.02-.04,.02-.06Zm-27.53,11.64c-.25-.92-.05-4.52,.3-5.03l1.16-1.23,.67,.18-.87,.88c-.58,.67-.63,3.72-.49,5.45-.25-.08-.51-.16-.77-.24Zm-3.97-1.26c-.24-.92,0-4.49,.35-4.99l1.16-1.23,.67,.18-.86,.88c-.58,.67-.64,3.69-.5,5.43-.27-.09-.54-.17-.82-.26Zm-10.06-3.2c-.2-1.19-.01-4.55,.32-5.06l.93-.99,.66,.2-.62,.63c-.59,.68-.64,3.77-.49,5.49-.27-.09-.54-.17-.8-.26Zm-2.4-.77c-.2-1.69-.05-4.55,.17-4.94l1.16-1.13c.4,.12,.82,.24,1.24,.37l-.65,.69c-.59,.67-.76,3.74-.64,5.43-.44-.14-.86-.28-1.29-.41Zm-1.69-.54c-.26-1.09-.21-4.47,.1-4.96l1-1.02,.66,.17-.68,.67c-.57,.66-.63,3.58-.5,5.33-.19-.06-.39-.12-.57-.18Zm21.96-14.91c.49,0,1.02,.01,1.56,.03,1.26,.09,2.58,.26,3.83,.43l-7.32-.24h-.02s-.05-.09-.09-.13c.58-.06,1.25-.1,2.05-.1Zm17.45,2.83c-6.42,7.29-9.27,10.53-10.55,12-.13-1.83,.08-5.3,.36-6.14l10.19-5.85Zm-2.2-.53v-.59l.63,.23-.63,.36Zm-.07,.04l-8.86,5.09h0c-1.18,.75-1.04,6.7-.88,8.14-1.13-.33-2.92-.87-5.11-1.52l.03-.03-.81-.22c.04-.24-.03-.5-.14-.77-.03-.08-.06-.11-.05-.1-.19-1.21-.08-3.54,.06-3.86l1.69-1.65-2.64-.71-1.17,1.19c-.58,.67-.57,4.13-.36,5.09,0,0,0,.02,0,.03-.19-.06-.37-.11-.56-.17l.06-.07-.12-.03c-.02-.2-.09-.4-.19-.6l-.04-.08c-.17-1.23-.07-3.48,.08-3.79l1.69-1.65-2.65-.7-1.18,1.19c-.55,.64-.56,3.8-.38,4.92l-.15-.04c-3.45-1.02-7.08-2.1-10.35-3.07-.03-.15-.09-.31-.16-.47-.03-.06-.05-.12-.06-.12,0,0,0,0,0,0-.2-1.29-.07-3.57,.06-3.86l1.69-1.64-1.64-.44,10.23-.74c.56,.32,1.13,.49,1.68,.58,.25,.05,.52,.1,.85,.13,.48-.01,.86-.08,1.19-.18,.58-.12,1.06-.29,1.37-.42l16.82,.54Zm-16.92,10.63c-.1-.04-.19-.09-.27-.13-.22-.71-.14-3.74,.09-4.19l.71-.72,.2,.05-.36,.35c-.55,.62-.5,3.47-.36,4.63Zm-3.25-.79s-.02,0-.03-.01h0s-.24-.12-.24-.12c-.22-.73-.14-3.73,.08-4.17l.71-.72,.2,.05-.36,.35c-.55,.63-.49,3.55-.37,4.61Zm-1.4-12.07l-10.6,.76c3.97-.72,8.33-1.19,10.64-.81-.01,.02-.03,.03-.04,.05Zm-11.03,3.31l-.36,.35c-.55,.64-.5,3.49-.36,4.63-.1-.04-.19-.09-.27-.13-.22-.71-.14-3.74,.08-4.19l.71-.72,.2,.05Zm-4.15-.11l.58-.58,.27-.02-.3,.29c-.54,.63-.5,3.4-.35,4.62-.01,0-.03,0-.04-.01h0s-.25-.12-.25-.12c-.22-.73-.14-3.73,.09-4.17Zm1.31,4.32l-.04-.03c-.2-1.29-.07-3.57,.06-3.86l1.18-1.15,.75-.05-.81,.82c-.54,.62-.57,3.6-.4,4.81-.2-.06-.4-.12-.6-.18-.04-.12-.09-.25-.15-.36Zm4.29,9.07c-.21-1.69-.06-4.58,.17-4.98l1.09-1.09c2.38,.71,4.88,1.45,7.3,2.16l-.86,.9c-.61,.7-.81,3.79-.68,5.36-2.28-.72-4.6-1.46-6.84-2.18-.06-.07-.11-.14-.18-.19Zm10.09,3.26c-.2-1.69-.05-4.58,.18-4.97l1.28-1.3c.33,.1,.65,.19,.97,.29l-.9,.95c-.61,.7-.78,3.81-.64,5.4-.26-.08-.53-.17-.8-.25-.04-.03-.06-.08-.1-.11Zm3.92,1.22c-.2-1.7-.06-4.58,.18-4.97l1.33-1.35c2.95,.87,5.24,1.56,6.27,1.86,.16,.23,.37,.42,.71,.44,.02,0,.03,0,.05,0,.23,0,.45-.11,.6-.28,.32-.37,10.87-12.35,12.06-13.7l1.27,.5-12.97,13.86h0c-.69,.8-.71,4.4-.43,6.58-1.68-.53-4.95-1.56-8.92-2.81-.05-.04-.08-.1-.13-.13Zm10.65-2.6l11.13-11.89c-.15,.7-.16,1.34,.13,1.8,.08,.13,.21,.24,.35,.3l1.32,.57-13.02,14.19c-.13-1.68-.14-4.33,.11-4.97Zm4.09-38.95c.33,.25,.66,.41,.93,.51v20.6l-.92-.03v-.2s0-20.88,0-20.88Zm-5.54-2.12c1.18,.57,2.4,1.16,3.82,1.01,0,3.92,.12,17.36,.16,21.07-1.84-.32-5.99-.97-9.65-1.11-1.62-.11-3.09-.08-4.28,.19-.14,.02-.26,.05-.38,.08-.05,.01-.11,.02-.16,.04-.17,.04-.33,.09-.47,.14l.12-20.91c.1-.04,.24-.09,.44-.16,1.08-.14,1.98-.44,2.71-.86,1.26-.34,2.66-.63,3.85-.63,1.5,0,2.69,.57,3.85,1.13Zm-15.61-3.23l3.01-.12-2.17-1.34c-.43-.26-.94-.7-1.21-1.07,.28,.04,.51,.07,.52,.07l1.28,.19-.44-1.22c-.1-.27-.28-.96-.25-1.6l1.44,.6,.16-.96c.26-1.52,1.63-2.08,2.08-2.22,.43,.11,1.7,.57,2.14,2.29l.22,.87,1.37-.57c.03,.63-.15,1.33-.25,1.6l-.43,1.22,1.27-.19s.22-.03,.49-.07c-.27,.39-.76,.81-1.18,1.07l-2.18,1.34,2.94,.12c-.33,.41-.82,.87-1.45,1.26-1.02,.28-1.92,.58-2.52,.8-.18,.02-.32,.07-.51,.08-.23,0-.4-.06-.61-.09-.47-.16-1.1-.34-1.83-.51-.89-.44-1.52-1.02-1.89-1.53Zm-5.65,3.48c1.6-.41,3.11-.8,4.28-.8,.88,0,1.78,.13,2.59,.3,.6,.29,1.35,.48,2.17,.59,.15,.05,.27,.09,.37,.13l-.12,20.88c-3.21-1.32-11.48-.12-15,.56l-.03-20.57c1.98-.11,3.97-.62,5.74-1.08Zm-8.66,5.14c.34-.25,.85-.68,1.36-1.34v19.63l-1.36,.1v-18.39Zm-4.09,18.98s.02-.02,.04-.03l2.5-2.56v3.67l1.74-.13c-.38,.88-.42,3.18-.3,4.36-1.85-.55-3.24-.95-3.85-1.13-.24-1.97-.3-3.79-.13-4.19Zm-3.65,6.46l2.69-3.06c.04,.38,.08,.78,.14,1.24,.03,.2,.17,.36,.36,.42,.3,.08,2.22,.65,4.98,1.46,.07,.04,.15,.08,.27,.13l-.68,.69c-.61,.7-.64,3.73-.45,5.33-3.45-1.11-6.11-1.98-7.2-2.37-.18-1.21-.26-3.46-.12-3.83Z"/>
      <path class="cls-2" d="M85.2,131.85l5.04,8.03c-.3,1.62-.46,3.23-.31,4.58,.24,2.28,1.49,9.83,7.61,11.26,.82,.19,1.82,.21,2.87,.21,.3,.49,1,1.61,1.68,2.7-1.74,1.21-2.99,3.48-2.3,6.03,.77,2.86,4.07,4.47,8.61,4.25l.22-.02c1,1.66,1.61,2.65,2.02,3.23-.09,.39-.21,.79-.34,1.22-.54,1.81-1.22,4.05-.23,6.21,1.03,2.23,2.65,2.55,3.83,2.78,.92,.18,1.26,.29,1.46,.75,.28,.63,.36,1.45,.44,2.24,.15,1.51,.32,3.22,2.04,3.73,1.72,.51,2.11,1.63,2.49,2.71,.29,.85,.69,1.99,1.97,1.99,.08,0,.17,0,.26-.01,.54-.06,1.27-.41,1.7-1.74,.09-.28,.16-.58,.21-.9l4.65,3.69,2.02-2.03-14.63-23.23c1.24-2.04,.67-5.56-1.32-7.25-1.04-.89-2.5-1.14-4.05-1.24-.26-.56-.75-1.44-1.62-2.82,1.16-1.07,1.97-3.55,1.66-5.54-.32-2.01-1.7-3.22-3.79-3.32-1.56-.07-2.8-.21-3.86-.37-.57-.91-3.06-4.98-4.18-6.82-.31-.52-.55-.9-.74-1.2,.09-.17,.18-.33,.26-.47,1.01,.94,2.64,1.8,4.27,.83,1.19-.7,1.81-2.22,1.68-4.15-.17-2.62-1.73-5.88-4.41-7.03-1.46-.63-3.81-.87-6.72,1.55-.21,.18-.43,.44-.64,.73-1.24-1.97-2.13-3.4-2.51-4.03,1.44-3,.58-4.46-.08-5.07-1.37-1.26-4.13-1.01-6.71,.61-2.27,1.43-4.11,4.35-3.25,6.42,.35,.84,1.42,2.11,4.68,1.51Zm20.28,28.57c-.24-.1-.47-.21-.63-.35-.01-.01-.03-.02-.04-.03-.12-.19-.48-.76-.92-1.47l-.21-.8-.22,.11c-.38-.61-.78-1.25-1.11-1.78,1.54,.11,3.04,.36,3.93,.69,.31,.17,.6,.36,.87,.6,.62,.93,1.55,2.47,2.18,3.54-1.63-.05-2.92-.14-3.84-.52Zm8.54,8.48c.21,.11,.4,.25,.57,.44l4.98,7.93c-.58-.4-1.25-.78-1.98-1.18-.11-.06-.24-.13-.35-.2-.02-.01-.04-.03-.07-.04-.9-.53-1.85-1.09-2.69-1.7-.65-.49-1.25-1.09-1.8-1.75-.15-.21-.34-.42-.44-.65l-.07,.02s-.05-.05-.07-.09l-.04-.07,.07-.05c-.13-.18-.92-1.44-1.75-2.82,.98-.08,1.71-.13,2.31-.12,.63,.05,1.07,.15,1.35,.27Zm8.36,23.27c-.2,.03-.26,.02-.59-.94-.41-1.18-1.03-2.96-3.51-3.69-.65-.19-.78-.88-.93-2.39-.09-.87-.18-1.85-.56-2.71-.55-1.24-1.68-1.47-2.58-1.65-1.08-.22-2.02-.4-2.72-1.91-.74-1.59-.2-3.42,.29-5.04,.35,.4,.77,.77,1.21,1.13,0,0,0,0,.01,.01,.17,.13,.34,.26,.52,.39,1,.76,2.02,1.37,2.97,1.89,1.44,.85,2.9,1.71,3.27,2.48,.15,.3,.21,.58,.26,.85,.03,.26,.04,.53,.05,.83,.01,.49,.03,1.03,.17,1.61,.16,.82,.6,1.72,1.72,2.76,.12,.11,.23,.25,.33,.41,0,.01,.02,.03,.02,.04,.05,.09,.09,.19,.13,.29,.23,.64,.45,1.72,.57,2.81,.02,.79-.06,1.56-.25,2.15-.17,.53-.37,.67-.39,.68Zm6.79,.35l-.17,.17-4.42-3.51c-.04-1.15-.28-2.31-.7-3.24-.18-.47-.4-.87-.68-1.11-.1-.09-.15-.16-.24-.25-.3-.29-.55-.56-.72-.82,0,0,0,0,0-.01-.17-.25-.29-.5-.37-.74-.05-.15-.09-.3-.11-.45,0-.04-.02-.09-.03-.13-.03-.24-.03-.49-.04-.75,0-.36-.02-.75-.08-1.16l7.57,12.01Zm-13.67-24.52c-.15-.13-.35-.26-.59-.39-.14-.08-.29-.14-.44-.2-.02,0-.04-.02-.06-.02-.56-.22-1.19-.31-1.89-.31-.71-.03-1.58,.02-2.6,.15l-1.6,.12c-3.72,.22-6.46-1.02-7.02-3.1-.49-1.8,.34-3.33,1.48-4.2,.77,1.47,2.22,2.04,3.84,2.27,1.08,.2,2.17,.25,2.97,.25,.47,0,.78-.01,.98-.03,1.46,.06,2.83,.23,3.63,.9,1.26,1.07,1.67,3.16,1.31,4.56Zm-14.01-19.43c-.91-.24-1.55-.51-2-.77-.54-.34-.86-.73-1.07-1.14-.38-1.08-.51-2.05-.49-2.9,.02-.29,.05-.57,.09-.83,0,0,0,.01,0,.02,1.67,2.74,2.74,4.49,3.46,5.61Zm-3.11-17.32c.49,0,.97,.1,1.44,.3,2.08,.9,3.34,3.61,3.47,5.71,.08,1.31-.26,2.32-.93,2.72-1.4,.83-2.9-1.15-2.91-1.17l-.54-.73-.64,.65c-.09,.09-1.5,1.63-1.81,4.24-.03,.19-.05,.38-.06,.59,0,.1-.02,.18-.02,.28-.05,.98,.04,2.03,.4,2.96,.05,.14,.12,.27,.19,.41,.01,.04,.01,.07,.03,.1,.24,.67,.77,1.23,1.52,1.71,.14,.1,.29,.2,.45,.28,.01,0,.03,.01,.05,.02,.62,.34,1.37,.6,2.26,.8,1.59,.4,3.59,.67,6.07,.78,1.36,.06,2.12,.72,2.32,2.01,.23,1.45-.36,3.13-.91,3.89-.12-.14-.26-.25-.38-.38,0,0,0-.01-.02-.02-.21-.31-.57-.55-.98-.77-1.94-1.21-4.45-1.23-6.59-1.24-1.1,0-2.14,0-2.88-.17-5.12-1.19-6.21-7.88-6.42-9.9-.1-.96-.04-2.05,.11-3.17l.16-.9c.04-.21,.07-.42,.12-.64,.03-.16,.07-.32,.1-.48,.67-2.85,1.84-5.5,2.74-6.26,1.29-1.08,2.52-1.62,3.67-1.62Zm-13.78-6.01c2.12-1.33,4.12-1.44,4.83-.79,.62,.57,.46,1.89-.45,3.61l-.84,1.61,1.18-.34c.47,.76,1.45,2.35,2.83,4.53-.32,.67-.95,2.1-1.44,3.84l-4.77-7.6-.54,.12c-1.88,.44-3.14,.26-3.44-.48-.43-1.02,.66-3.26,2.64-4.51Z"/>
      <path class="cls-2" d="M101.2,137.06c.12,0,.24-.02,.36-.06,.61-.23,.89-1,.63-1.7-.14-.38-.41-.69-.74-.85-.27-.12-.57-.14-.84-.04-.61,.22-.9,.98-.64,1.7,.21,.58,.72,.95,1.24,.95Zm-.25-1.71h.08s0,0,0,0c.07,.03,.17,.12,.23,.28,.08,.22,0,.41-.04,.43-.04,.02-.23-.06-.31-.29-.08-.23,0-.41,.05-.43Z"/>
      <path class="cls-2" d="M9.86,152.2h.37c.38,4.75,4.39,8.51,9.32,8.51s8.91-3.74,9.31-8.47h.36s-.29-.67-.29-.67c0-.03,0-.06,0-.09v-.78h-.38l-8.1-18.66h14.81l-1.85,40.83h-6.76v3.99h6.65l-.33,7.54h-3.02v.78c0,3.96,2.76,6.96,6.41,6.96s6.41-2.99,6.41-6.96v-.78h-3.02l-.34-7.54h6.65v-3.99h-6.81l-1.8-40.83h15.04l-8.1,18.66h-.38v.78s0,.06,0,.09l-.29,.67h.36c.4,4.73,4.4,8.47,9.31,8.47s8.94-3.76,9.31-8.51h.37s-.3-.7-.3-.7c0,0,0,0,0-.01v-.78h-.35l-8.59-19.76v-1.89h-16.52l-.18-4.19h-1.55s-.19,4.19-.19,4.19H19.04v2.01l-8.53,19.63h-.35v.78s0,.02,0,.02l-.3,.69Zm9.68,6.96c-4.05,0-7.39-3.03-7.79-6.89h15.58c-.4,3.86-3.74,6.89-7.79,6.89Zm18.64,25.25h-3.54l3.47-1.63,.07,1.63Zm-.15-3.31l-3.45,1.62,.07-1.67,3.3-1.55,.07,1.59Zm-1.69,9.5c-2.58,0-4.5-1.9-4.81-4.62h9.63c-.31,2.72-2.24,4.62-4.81,4.62Zm1.54-12.78l-3.15,1.48,.11-2.41h3s.04,.94,.04,.94Zm6.61-2.5H28.2v-.88h16.31v.88Zm8.87-16.16c-4.05,0-7.39-3.03-7.79-6.89h15.58c-.4,3.86-3.74,6.89-7.79,6.89Zm-18.42,13.67l1.38-30.51,1.35,30.51h-2.73Zm11.13-22.14l7.31-16.83,7.3,16.8-14.61,.03Zm6.75-20.62v.99h-15.43l-.04-.99h15.48Zm-32.8,0h15.31l-.05,.99h-15.26v-.99Zm-.51,3.79l7.31,16.83-14.61-.03,7.3-16.8Z"/>
      <path class="cls-2" d="M95.84,241.33c1.76-.6,3.58-1.22,5.53-.57l.32-.95c-2.28-.77-4.35-.06-6.17,.57-.95,.33-1.85,.63-2.62,.66l.03,1c.91-.03,1.88-.36,2.91-.71Z"/>
      <path class="cls-2" d="M95.77,243.92c1.7-.55,3.62-1.18,5.6-.51l.32-.95c-2.29-.76-4.38-.09-6.23,.5-.94,.3-1.83,.59-2.58,.62l.03,1c.89-.03,1.85-.34,2.86-.66Z"/>
      <path class="cls-2" d="M95.72,246.5c1.71-.52,3.66-1.11,5.65-.45l.32-.95c-2.3-.77-4.4-.13-6.26,.44-.94,.28-1.82,.55-2.57,.58l.03,1c.88-.03,1.83-.32,2.83-.62Z"/>
      <path class="cls-2" d="M95.67,249.08c1.73-.49,3.7-1.06,5.7-.38l.32-.95c-2.31-.77-4.42-.17-6.29,.37-.93,.27-1.8,.51-2.55,.54l.03,1c.87-.02,1.8-.29,2.79-.57Z"/>
      <path class="cls-2" d="M95.6,251.66c1.75-.47,3.74-1,5.77-.32l.32-.95c-2.32-.78-4.46-.2-6.35,.3-.91,.24-1.78,.48-2.51,.5l.03,1c.85-.03,1.77-.27,2.74-.53Z"/>
      <path class="cls-2" d="M95.29,253.28c-.9,.23-1.76,.44-2.48,.46l.03,1c.84-.03,1.74-.25,2.7-.49,1.77-.44,3.78-.94,5.83-.26l.32-.95c-2.33-.78-4.49-.24-6.39,.24Z"/>
      <path class="cls-2" d="M108.23,239.82l.32,.95c2.1-.71,4.15-.27,5.96,.13,.92,.2,1.78,.38,2.58,.41l.03-1c-.71-.02-1.53-.2-2.4-.39-1.93-.42-4.12-.89-6.49-.1Z"/>
      <path class="cls-2" d="M108.23,242.46l.32,.95c2.1-.71,4.14-.25,5.94,.14,.92,.2,1.79,.39,2.6,.42l.03-1c-.71-.02-1.54-.2-2.41-.4-1.93-.42-4.11-.9-6.47-.11Z"/>
      <path class="cls-2" d="M114.47,246.21c.93,.21,1.81,.41,2.62,.43l.03-1c-.72-.02-1.55-.21-2.43-.41-1.92-.43-4.1-.92-6.46-.13l.32,.95c2.09-.7,4.13-.24,5.92,.16Z"/>
      <path class="cls-2" d="M108.24,247.75l.32,.95c2.08-.7,4.11-.23,5.9,.18,.94,.21,1.82,.42,2.64,.44l.03-1c-.72-.02-1.56-.21-2.44-.42-1.92-.44-4.1-.94-6.45-.15Z"/>
      <path class="cls-2" d="M114.45,251.54c.94,.22,1.83,.43,2.65,.45l.03-1c-.72-.02-1.56-.22-2.45-.43-1.92-.45-4.09-.96-6.43-.17l.32,.95c2.07-.7,4.1-.22,5.89,.19Z"/>
      <path class="cls-2" d="M108.25,253.04l.32,.95c2.06-.69,4.08-.21,5.87,.21,.95,.23,1.84,.44,2.67,.46l.03-1c-.73-.02-1.57-.22-2.47-.44-1.91-.45-4.08-.97-6.42-.19Z"/>
      <path class="cls-2" d="M108.99,109.62l-24.4-33.92-1.14-6.99,15.84,11.56,.85-1.16-17.02-12.42-.51-3.11,41.99,14.07,.89-2.65-42.06-14.09,1.91-1.88h21.81s0-1.44,0-1.44h-20.34s5.15-5.06,5.15-5.06l33.68-11.1-.87-2.65-33.81,11.15-6.39-1.05,15.9-11.6-.85-1.16-17.04,12.44-3.14-.51L105.34,11.86l-2.27-1.63-25.86,36.12-1.31-2.63,6.59-20.41-1.37-.44-6.14,19.01-3.22-6.48V0h-2.79V35.39l-3.14,6.36-6.16-19.07-1.37,.44,6.62,20.48-1.31,2.65L37.62,10.38l-2.26,1.64,25.98,35.85-3.32,.48-17.14-12.52-.85,1.16,15.96,11.65-7.1,1.03L15.91,38.78l-.88,2.65,33.52,11.08,5.11,5.08h-19.94v1.44h21.39l2.05,2.03-42.3,13.94,.87,2.65,42.23-13.91-.5,3.25-17.13,12.39,.84,1.17,15.98-11.56-.96,6.23-25.05,34.41H0s0,180.74,0,180.74c0,4.28,3.47,7.76,7.73,7.76,.52,0,48.28,0,55.19,0v.02s.88-.02,.88-.02c2.33-.01,4.58,3.87,5.18,5.25l1.44,3.29,1.42-3.29c.75-1.73,2.94-5.26,5.04-5.24h56.16c4.27,0,7.74-3.48,7.74-7.76V109.61h-31.8Zm28.68,93.87h-45.28c-.67-8.83-6.45-16.5-14.99-19.39-.42-.09-.64-.3-.97-.62-.56-.54-1.32-1.28-3.2-1.28-.48,0-1.05,.11-1.61,.29V112.74h66.05s0,90.74,0,90.74Zm-67.27,22.38c-11.35,0-20.58-9.28-20.58-20.68,0-5.81,2.16-11.01,6.08-14.65,3.32-3.08,7.66-4.74,12.35-4.74,.27,0,.54,0,.82,.02,.02,.11,.05,.21,.09,.31-9.87,.68-17.69,8.94-17.69,19,0,3.44,.93,6.66,2.53,9.45l-.18,.31h.37c3.31,5.53,9.33,9.25,16.21,9.25s12.9-3.72,16.21-9.25h.36l-.18-.31c1.6-2.79,2.53-6.01,2.53-9.45,0-9.36-6.66-17.25-16.02-18.77-2.46,.19-2.59-.48-2.66-.91-.05-.27,.02-.51,.22-.75,.45-.54,1.47-.94,2.38-.94,1.25,0,1.63,.37,2.11,.84,.39,.38,.87,.85,1.65,1,8.36,2.84,13.98,10.71,13.98,19.59,0,11.4-9.23,20.68-20.57,20.68Zm9.3-20.03c-.45,.64-2.15,2.17-4.46,3.25,.62-.94,.98-2.06,.98-3.26s-.36-2.3-.96-3.23c2.3,1.09,4,2.62,4.44,3.24Zm-9.37-4.37c2.39,0,4.33,1.95,4.33,4.36s-1.94,4.36-4.33,4.36-4.34-1.96-4.34-4.36,1.94-4.36,4.34-4.36Zm-4.93,7.58c-2.3-1.09-4.01-2.61-4.45-3.22,.43-.68,2.17-2.36,4.61-3.44-.7,.97-1.12,2.16-1.12,3.44,0,1.19,.36,2.29,.96,3.22Zm-5.35-1.9s.03,.04,.05,.06c1.72,1.85,5.86,4.61,10.24,4.61,4.69,0,8.73-3,10.21-4.59,.07-.08,.11-.14,.17-.21l3.58,6.3h-27.8l3.54-6.18Zm10.3-7.31c-2.78-.08-5.35,.91-7.36,2.18l7.47-13.03,7.64,13.43c-1.96-1.32-4.71-2.58-7.75-2.58Zm-15.44,13.14c-1.19-2.37-1.88-5.03-1.88-7.86,0-9.28,7.26-16.88,16.38-17.43l-14.5,25.29Zm29.88,1.9c-3.12,4.64-8.41,7.7-14.39,7.7s-11.27-3.06-14.4-7.7h28.79Zm-13.17-27.01c.45,.05,.98,.07,1.61,.02,8.42,1.39,14.54,8.63,14.54,17.23,0,2.83-.69,5.49-1.88,7.85l-14.27-25.1Zm0-78.25v-38.01l2.81,1.42,6.55,20.26,1.37-.44-6.11-18.9,5.76,2.93,23.54,32.73h-33.93Zm-10.91-36.88l8.93-12.31v7.78l-8.93,4.53Zm10.37-4.53v-7.94l8.97,12.5-8.97-4.55Zm1.21-8.73l7.2,2.33,1.63,9.98-8.83-12.31Zm7.65,.96l-7.16-2.32,14.24-4.64-7.08,6.96Zm-7.63-3.68l4.57-6.31,9.84,1.61-14.42,4.7Zm-1.22-.77v-15.69l4.63,9.3-4.63,6.38Zm-1.44-.19l-4.53-6.31,4.53-9.16v15.47Zm-5.7-5.47l4.62,6.44-15.18-4.91,10.56-1.53Zm4.17,7.81l-7.48,2.44-7.26-7.21,14.75,4.77Zm.42,1.38l-8.99,12.4,1.53-9.97,7.46-2.43Zm-10.25,17.6l6.34-3.22-6.18,19.11,1.37,.44,6.63-20.47,2.41-1.22,.03,37.88H34.62s23.68-32.52,23.68-32.52Zm10.59,35.64l.06,71.52c-5.34-.19-10.33,1.62-14.11,5.13-3.84,3.57-6.1,8.5-6.5,14.03H3.12V112.75s65.77,0,65.77,0Zm-5.02,182.26s-.08,0-.13,0v.21c-2.22-.22-8.59-.21-27.98-.21H7.74c-2.54,0-4.61-2.08-4.61-4.64v-83.82s45.21,0,45.21,0c.68,11.1,9.48,20.01,20.51,20.79v70.18c-1.29-1.37-2.96-2.51-4.97-2.51Zm69.19,0h-56.12c-2.01-.09-3.68,1.09-4.97,2.51v-70.18c11.04-.78,19.85-9.72,20.5-20.85h45.21v83.87c0,2.56-2.07,4.64-4.62,4.64Z"/>
    </g>
    <g>
      <g>
        <path class="cls-2" d="M567.41,277.61c.06,12.16-7.14,18.61-16.96,18.61s-16.95-6.45-16.9-18.61l.11-22.72c0-.57,.34-.91,.91-.91h3.2c.57,0,.91,.34,.91,.91l.06,22.15c.06,9.99,4.68,14.67,11.82,14.67s11.65-4.74,11.65-14.67l.11-22.15c0-.57,.34-.91,.91-.91h3.2c.57,0,.91,.34,.91,.91l.06,22.72Z"/>
        <path class="cls-2" d="M608.63,294.94c0,.57-.34,.91-.91,.91h-4.79c-.51,0-.86-.17-1.08-.63l-21.01-35.17,.17,34.88c0,.57-.34,.91-.91,.91h-3.48c-.57,0-.91-.34-.91-.91l.23-39.68c0-.57,.34-.91,.91-.91h4.97c.51,0,.86,.17,1.08,.63l20.5,34.14,.17-33.85c0-.57,.34-.91,.91-.91h3.08c.57,0,.91,.34,.91,.91l.17,39.68Z"/>
        <path class="cls-2" d="M625.69,294.94c0,.57-.34,.91-.91,.91h-3.54c-.57,0-.91-.34-.91-.91l.17-39.68c0-.57,.34-.91,.91-.91h3.14c.57,0,.91,.34,.91,.91l.23,39.68Z"/>
        <path class="cls-2" d="M668.73,254.35c.69,0,.97,.4,.74,1.03l-14.27,39.74c-.23,.51-.51,.74-1.09,.74h-4.28c-.57,0-.86-.23-1.09-.74l-14.21-39.74c-.23-.63,.06-1.03,.74-1.03h3.2c.57,0,.86,.23,1.08,.74l12.27,33.91h.34l12.28-33.91c.23-.51,.51-.74,1.08-.74h3.2Z"/>
        <path class="cls-2" d="M700.98,291.28c.57,0,.91,.34,.91,.91v2.74c0,.57-.34,.91-.91,.91h-25.12c-.57,0-.91-.34-.91-.91l.23-39.68c0-.57,.34-.91,.91-.91h24.83c.57,0,.91,.34,.91,.91v2.74c0,.57-.34,.91-.91,.91h-20.78l.11,12.9h17.75c.57,0,.91,.34,.91,.91v2.8c0,.57-.34,.91-.91,.91h-17.75l.11,14.84h20.61Z"/>
        <path class="cls-2" d="M713.94,277.52l.11,17.41c0,.57-.34,.91-.91,.91h-3.6c-.57,0-.91-.34-.91-.91l.23-39.68c0-.57,.34-.91,.91-.91h15.81c8.16,0,13.3,4.79,13.3,11.36,0,5.88-4.05,10.62-10.85,11.65l12.27,17.41c.46,.57,.17,1.08-.57,1.08h-4.34c-.46,0-.8-.17-1.08-.57l-11.99-17.76h-8.39Zm11.08-4.45c5.88,0,8.85-2.74,8.85-6.97,0-4.45-3.31-7.31-8.85-7.31h-11.19l.06,14.27h11.13Z"/>
        <path class="cls-2" d="M775.76,263.45c.23,.63-.06,1.03-.74,1.03h-3.08c-.51,0-.86-.17-1.08-.63-1.77-3.08-5.14-5.71-10.45-5.71-5.77,0-8.79,2.51-8.79,6,0,3.77,3.08,5.48,10.05,7.59l2.22,.68c9.25,2.86,12.9,6.97,12.9,12.62,0,7.25-5.88,11.53-14.9,11.53-10.68,0-15.76-6.16-17.01-11.19-.17-.57,.17-.97,.8-.97h3.25c.51,0,.8,.23,1.03,.68,1.65,3.71,5.19,6.91,12.1,6.91,6.11,0,9.53-2.22,9.53-6.28,0-3.83-3.08-6.28-10.33-8.68l-2.34-.74c-7.76-2.51-12.27-5.54-12.45-11.42-.17-7.02,6.22-11.25,14.33-11.25s13.13,4.74,14.96,9.82Z"/>
        <path class="cls-2" d="M792.37,294.94c0,.57-.34,.91-.91,.91h-3.54c-.57,0-.91-.34-.91-.91l.17-39.68c0-.57,.34-.91,.91-.91h3.14c.57,0,.91,.34,.91,.91l.23,39.68Z"/>
        <path class="cls-2" d="M818.91,254.35c12.79,0,19.7,8.05,19.7,20.15s-7.02,21.35-19.81,21.35h-13.87c-.57,0-.91-.34-.91-.91l.23-39.68c0-.57,.34-.91,.91-.91h13.76Zm-.46,36.99c9.42,0,15.13-6.28,15.13-16.27s-5.65-16.27-15.07-16.27h-9.3l.17,32.54h9.08Z"/>
        <path class="cls-2" d="M852.02,283l-4.34,12.1c-.23,.51-.51,.74-1.08,.74h-3.31c-.68,0-.97-.4-.74-1.03l14.67-39.73c.23-.51,.51-.74,1.08-.74h3.94c.57,0,.91,.23,1.09,.74l14.67,39.73c.23,.63-.06,1.03-.74,1.03h-3.31c-.57,0-.86-.23-1.08-.74l-4.34-12.1h-16.5Zm8.39-22.49h-.29l-6.45,17.93h13.19l-6.45-17.93Z"/>
        <path class="cls-2" d="M898.26,254.35c12.79,0,19.7,8.05,19.7,20.15s-7.02,21.35-19.81,21.35h-13.87c-.57,0-.91-.34-.91-.91l.23-39.68c0-.57,.34-.91,.91-.91h13.76Zm-.46,36.99c9.42,0,15.13-6.28,15.13-16.27s-5.65-16.27-15.07-16.27h-9.3l.17,32.54h9.08Z"/>
        <path class="cls-2" d="M951.4,254.35c12.79,0,19.7,8.05,19.7,20.15s-7.02,21.35-19.81,21.35h-13.87c-.57,0-.91-.34-.91-.91l.23-39.68c0-.57,.34-.91,.91-.91h13.76Zm-.46,36.99c9.42,0,15.13-6.28,15.13-16.27s-5.65-16.27-15.07-16.27h-9.3l.17,32.54h9.08Z"/>
        <path class="cls-2" d="M1003.86,291.28c.57,0,.91,.34,.91,.91v2.74c0,.57-.34,.91-.91,.91h-25.12c-.57,0-.91-.34-.91-.91l.23-39.68c0-.57,.34-.91,.91-.91h24.83c.57,0,.91,.34,.91,.91v2.74c0,.57-.34,.91-.91,.91h-20.78l.11,12.9h17.75c.57,0,.91,.34,.91,.91v2.8c0,.57-.34,.91-.91,.91h-17.75l.11,14.84h20.61Z"/>
        <path class="cls-2" d="M1058.26,265.05c.23,.63-.11,1.03-.74,1.03l-3.08,.06c-.51,0-.86-.23-1.08-.69-2.63-4.68-6.97-7.36-12.28-7.36-8.16,0-14.21,6.11-14.21,16.67s6,17.3,14.73,17.3c6.05,0,9.99-3.14,12.16-8.11,.23-.46,.51-.68,1.03-.68l3.03,.06c.68,0,.97,.4,.74,1.03-2.23,6.34-8.05,12.22-17.41,12.22-11.53,0-19.3-8.91-19.3-21.41s8.34-21.53,19.53-21.53c7.82,0,14.16,4.23,16.9,11.42Z"/>
        <path class="cls-2" d="M1094.45,295.85c-.57,0-.91-.34-.91-.91l.06-18.5h-22.61l.06,18.5c0,.57-.34,.91-.91,.91h-3.54c-.57,0-.91-.34-.91-.91l.23-39.68c0-.57,.34-.91,.91-.91h3.14c.57,0,.91,.34,.91,.91l.06,16.56h22.72l.06-16.56c0-.57,.34-.91,.91-.91h3.2c.57,0,.91,.34,.91,.91l.17,39.68c0,.57-.34,.91-.91,.91h-3.54Z"/>
        <path class="cls-2" d="M1116.02,294.94c0,.57-.34,.91-.91,.91h-3.54c-.57,0-.91-.34-.91-.91l.17-39.68c0-.57,.34-.91,.91-.91h3.14c.57,0,.91,.34,.91,.91l.23,39.68Z"/>
        <path class="cls-2" d="M1154.1,291.28c.57,0,.91,.34,.91,.91v2.74c0,.57-.34,.91-.91,.91h-25.52c-.57,0-.91-.34-.91-.91l.23-39.68c0-.57,.34-.91,.91-.91h3.14c.57,0,.91,.34,.91,.91l.23,36.02h21.01Z"/>
        <path class="cls-2" d="M1186.64,291.28c.57,0,.91,.34,.91,.91v2.74c0,.57-.34,.91-.91,.91h-25.12c-.57,0-.91-.34-.91-.91l.23-39.68c0-.57,.34-.91,.91-.91h24.83c.57,0,.91,.34,.91,.91v2.74c0,.57-.34,.91-.91,.91h-20.78l.11,12.9h17.75c.57,0,.91,.34,.91,.91v2.8c0,.57-.34,.91-.91,.91h-17.75l.11,14.84h20.61Z"/>
      </g>
      <g>
        <path class="cls-1" d="M544.42,233.85h-10.86v-55.98h10.86v55.98Z"/>
        <path class="cls-1" d="M601.52,233.88h-10.65l-25.29-39.31v39.31h-10.65v-56.05h12.19l23.75,36.58v-36.58h10.65v56.05Z"/>
        <path class="cls-1" d="M663.6,223.58c-1.59,1.96-3.32,3.66-5.19,5.08-1.87,1.43-3.82,2.61-5.85,3.54-2.03,.94-4.11,1.62-6.23,2.07-2.13,.44-4.24,.66-6.34,.66-4.16,0-8.06-.75-11.7-2.24-3.64-1.49-6.82-3.55-9.53-6.17-2.71-2.62-4.86-5.7-6.45-9.25-1.59-3.55-2.38-7.38-2.38-11.49s.78-7.79,2.35-11.31c1.56-3.53,3.71-6.6,6.45-9.22,2.73-2.62,5.92-4.68,9.56-6.2,3.64-1.52,7.54-2.28,11.7-2.28,4.81,0,9.19,.98,13.14,2.94,3.95,1.96,7.3,4.58,10.06,7.85l-7.35,7.5c-2.1-2.85-4.45-4.89-7.06-6.13-2.61-1.24-5.53-1.86-8.74-1.86-2.66,0-5.15,.49-7.48,1.47-2.33,.98-4.37,2.32-6.12,4.03-1.75,1.7-3.12,3.69-4.13,5.96-1,2.27-1.5,4.68-1.5,7.25s.5,5.06,1.5,7.32c1,2.27,2.38,4.26,4.13,5.99,1.75,1.73,3.79,3.08,6.12,4.06,2.33,.98,4.82,1.47,7.48,1.47,2.52,0,4.89-.47,7.13-1.4,2.24-.93,4.24-2.17,6.01-3.71v-5.39h-11.49v-9.25h21.93v18.71Z"/>
        <path class="cls-1" d="M709,233.85h-36.99v-55.98h36.99v8.97h-26.34v13.38h25.99v8.76h-25.99v15.42h26.34v9.46Z"/>
        <path class="cls-1" d="M764,233.88h-10.65l-25.29-39.31v39.31h-10.65v-56.05h12.19l23.75,36.58v-36.58h10.65v56.05Z"/>
        <path class="cls-1" d="M785.37,233.85h-10.86v-55.98h10.86v55.98Z"/>
        <path class="cls-1" d="M832.87,233.85h-36.99v-55.98h36.99v8.97h-26.34v13.38h25.99v8.76h-25.99v15.42h26.34v9.46Z"/>
        <path class="cls-1" d="M883.39,233.88h-11.96l-3.98-12.75c-.42-1.4-.95-2.69-1.57-3.86-.63-1.16-1.39-2.17-2.27-3.01-.89-.84-1.95-1.49-3.18-1.96-1.23-.47-2.69-.7-4.37-.7h-4.05v22.28h-10.72v-55.98l22.1-.07c2.38,0,4.59,.41,6.64,1.23,2.05,.82,3.82,1.95,5.32,3.4,1.49,1.45,2.66,3.15,3.5,5.12,.84,1.96,1.26,4.09,1.26,6.38,0,1.63-.26,3.22-.77,4.76-.51,1.54-1.23,2.97-2.16,4.28-.93,1.31-2.03,2.46-3.31,3.47-1.28,1.01-2.68,1.76-4.21,2.28,1.76,.65,3.2,1.6,4.32,2.84,1.11,1.24,1.99,2.72,2.65,4.45,.32,.79,.63,1.59,.9,2.38,.28,.8,.57,1.62,.87,2.49,.3,.86,.63,1.8,.98,2.8,.35,1.01,.73,2.11,1.15,3.33,.51,1.54,.99,2.86,1.44,3.96,.44,1.1,.92,2.07,1.44,2.91Zm-14.15-39.17c0-1.31-.24-2.5-.73-3.57-.49-1.07-1.16-2.01-2-2.8-.84-.79-1.83-1.41-2.98-1.86-1.14-.44-2.37-.66-3.68-.66h-7.85v17.45h7.85c1.31,0,2.53-.2,3.68-.6s2.14-.97,2.98-1.72c.84-.75,1.51-1.65,2-2.7,.49-1.05,.73-2.23,.73-3.54Z"/>
        <path class="cls-1" d="M907.64,158.52l-10.09,13.52h-7.43l6.31-13.52h11.21Zm-6.66,75.33h-10.86v-55.98h10.86v55.98Z"/>
        <path class="cls-1" d="M968.03,233.88h-11.91l-5.19-11.21h-27.19l-5.25,11.21h-11.91l26.48-56.05h8.48l26.48,56.05Zm-21.37-20.25l-9.32-20.18-9.46,20.18h18.78Z"/>
        <path class="cls-1" d="M1046.93,223.79c-2.8,3.41-6.2,6.12-10.19,8.13-3.99,2.01-8.4,3.01-13.21,3.01-4.16,0-8.06-.76-11.7-2.28-3.64-1.52-6.81-3.58-9.51-6.2-2.69-2.62-4.82-5.69-6.38-9.21-1.55-3.53-2.33-7.32-2.33-11.39s.78-7.86,2.33-11.39c1.56-3.53,3.68-6.61,6.38-9.25,2.7-2.64,5.87-4.71,9.51-6.2,3.64-1.49,7.54-2.24,11.7-2.24,4.81,0,9.21,1.01,13.21,3.01,3.99,2.01,7.32,4.62,9.98,7.85l-7.5,7.71c-1.73-2.47-3.96-4.47-6.69-5.99-2.73-1.52-5.74-2.28-9-2.28-2.62,0-5.08,.5-7.39,1.51-2.31,1.01-4.33,2.36-6.06,4.06-1.73,1.71-3.1,3.69-4.1,5.96-1.01,2.27-1.51,4.68-1.51,7.25s.5,4.92,1.51,7.18c1.01,2.27,2.37,4.25,4.1,5.96,1.73,1.71,3.75,3.06,6.06,4.06,2.31,1.01,4.78,1.51,7.39,1.51,3.46,0,6.51-.78,9.18-2.35,2.66-1.56,4.88-3.63,6.66-6.2l7.57,7.78Z"/>
        <path class="cls-1" d="M1063.46,233.85h-10.86v-55.98h10.86v55.98Z"/>
        <path class="cls-1" d="M1122.32,177.83l-21.23,56.05h-9.95l-21.72-56.05h12.05l14.57,39.38,14.36-39.38h11.91Z"/>
        <path class="cls-1" d="M1139.13,233.85h-10.86v-55.98h10.86v55.98Z"/>
        <path class="cls-1" d="M1187.55,233.85h-37.91v-55.98h11.07v45.47h26.84v10.51Z"/>
      </g>
    </g>
  </g>
  <path class="cls-2" d="M1285.96,302.31c-2.65,0-4.79-2.14-4.79-4.79V10.1c0-2.65,2.14-4.79,4.79-4.79s4.79,2.14,4.79,4.79V297.52c0,2.65-2.14,4.79-4.79,4.79Z"/>
  <g>
    <g>
      <path class="cls-2" d="M1404.69,187.91v-3.41c13.29-.34,24.55-2.38,29.66-8.86,5.8-7.84,7.84-17.39,7.84-34.44v-59.34c0-6.48-1.02-18.75-2.04-22.85-5.12,1.02-11.26,1.71-17.05,1.71-6.14,0-12.96-.69-17.73-2.05v-3.41c28.65-1.02,48.43-9.21,63.43-23.53h1.7c-1.02,14.67-1.36,28.65-1.36,40.92v68.55c0,18.41,1.02,28.98,6.14,35.81,4.1,5.46,13.99,7.16,25.24,7.5v3.41h-95.82Z"/>
      <path class="cls-2" d="M1635.89,65.48h-68.88c-29.33,0-40.58,3.41-53.2,33.08l-4.44-1.02,16.37-66.84h3.75c2.39,7.16,7.84,8.52,21.49,8.52h99.58l1.36,2.39-84.91,208.36c-5.46,13.64-10.23,26.94-24.9,26.94-8.86,0-14.66-5.12-14.66-13.3,0-6.47,3.75-14.32,9.55-24.55l98.89-173.58Z"/>
      <path class="cls-2" d="M1744.67,193.02c-48.09,0-80.83-37.51-80.83-79.12s31.03-79.12,80.14-79.12,80.48,38.19,80.48,79.12c0,47.4-38.19,79.12-79.79,79.12Zm47.4-78.78c0-41.26-16.37-74.68-48.08-74.68s-47.74,35.47-47.74,74.34c0,40.92,17.39,74,48.43,74,33.42,0,47.4-38.53,47.4-73.66Z"/>
    </g>
    <g>
      <path class="cls-2" d="M1682.22,252.48h-.65c-2.7,5.99-5.94,10.88-9.73,14.66-3.79,3.78-7.35,5.68-10.66,5.68-5.03,0-7.55-3.15-7.55-9.45,0-6.95,2.77-13.75,8.31-20.41,5.73-6.9,12.72-10.35,20.98-10.35,3.41,0,6.98,.14,10.71,.43l-2.58,10.6-3.47,17.69c-.55,2.77-.82,4.56-.82,5.37,0,1.5,.7,2.26,2.11,2.26,2.39,0,5.94-2.63,10.67-7.88l-.64,3.33c-5.24,5.61-9.94,8.41-14.1,8.41-3.47,0-5.2-1.8-5.2-5.41,0-1.19,.29-3.22,.86-6.09l1.76-8.84Zm2.88-14.32c-3.01-1.34-5.98-2.01-8.91-2.01-4.34,0-7.82,2.74-10.42,8.24-3.05,6.49-4.58,12.33-4.58,17.51,0,3.75,1.1,5.62,3.29,5.62,2.05,0,5-2.15,8.85-6.46,3.85-4.31,7.23-9.23,10.14-14.77l1.62-8.13Z"/>
      <path class="cls-2" d="M1705.66,272.36l2.65-11.03,3.51-17.69c.55-2.74,.82-4.53,.82-5.37,0-1.48-.7-2.22-2.11-2.22-2.34,0-5.9,2.62-10.67,7.87l.64-3.29c5.2-5.63,9.89-8.45,14.07-8.45,3.44,0,5.16,1.79,5.16,5.37,0,1.22-.27,3.25-.82,6.09l-1.75,8.84h.54c2.98-6.11,6.36-11.02,10.11-14.73,3.76-3.71,7.26-5.57,10.51-5.57,3.92,0,5.87,2.17,5.87,6.52,0,1.41-.2,3.13-.61,5.16l-3.47,17.47c-.55,2.77-.82,4.56-.82,5.37,0,1.5,.7,2.26,2.11,2.26,2.39,0,5.96-2.62,10.71-7.87l-.68,3.33c-5.2,5.61-9.89,8.41-14.07,8.41-3.44,0-5.16-1.8-5.16-5.4,0-1.19,.29-3.22,.86-6.08l3.47-17.53c.29-1.36,.43-2.5,.43-3.43,0-1.93-.72-2.9-2.15-2.9-4.56,0-10.88,7.22-18.98,21.66l-2.61,12.78-7.55,.43Zm18.55-46.87l-2.51,.5c.38-2.51,1.31-4.53,2.77-6.07,1.47-1.54,3.19-2.31,5.17-2.31,1.15,0,2.67,.54,4.58,1.61l1.22,.68c1.77,.98,3.12,1.47,4.05,1.47,1.36,0,2.58-1.18,3.65-3.54l2.36-.68c-.86,5.9-3.44,8.84-7.73,8.84-1.5,0-3.12-.47-4.83-1.4l-1.65-.93c-1.58-.86-2.81-1.29-3.69-1.29-1.41,0-2.54,1.04-3.4,3.12Z"/>
      <path class="cls-2" d="M1766.32,272.82c-3.13,0-5.73-1.22-7.82-3.67-2.09-2.45-3.13-5.5-3.13-9.15,0-6.87,2.6-13.23,7.81-19.07,5.2-5.84,10.87-8.75,17.01-8.75,3.32,0,6.05,1.19,8.2,3.58,2.15,2.39,3.22,5.43,3.22,9.13,0,7.14-2.6,13.58-7.81,19.32-5.2,5.74-11.03,8.61-17.47,8.61Zm4.08-3.12c3.53,0,6.64-2.27,9.33-6.82,2.69-4.55,4.03-9.83,4.03-15.84,0-7.9-2.41-11.85-7.23-11.85-3.41,0-6.49,2.35-9.22,7.04-2.73,4.69-4.1,9.97-4.1,15.84,0,7.76,2.4,11.64,7.2,11.64Z"/>
      <path class="cls-2" d="M1793.35,270.71l4.73-4.83c3.1,2.27,6.25,3.4,9.47,3.4,1.98,0,3.64-.52,5-1.56,1.36-1.04,2.04-2.32,2.04-3.85,0-1.7-1.35-4.01-4.05-6.95l-3.26-3.58c-3.17-3.49-4.76-6.4-4.76-8.74,0-3.25,1.54-6.13,4.62-8.65,3.08-2.52,6.6-3.78,10.56-3.78,2.17,0,4.61,.45,7.3,1.36l-1.58,7.91h-2.29l.11-.61c.05-.21,.07-.47,.07-.75,0-3.22-2.07-4.83-6.21-4.83-4.64,0-6.96,1.86-6.96,5.59,0,1.89,1.38,4.39,4.15,7.52l2.94,3.26c3.2,3.6,4.8,6.56,4.8,8.88,0,3.2-1.7,6.05-5.08,8.56-3.39,2.51-7.25,3.76-11.57,3.76-3.03,0-6.37-.7-10.03-2.11Z"/>
    </g>
  </g>
</svg>