<svg xmlns="http://www.w3.org/2000/svg" xmlns:xlink="http://www.w3.org/1999/xlink" width="103.784" height="80" viewBox="0 0 103.784 80">
  <defs>
    <clipPath id="clip-path">
      <path id="Clip_2" data-name="Clip 2" d="M0,0H7.5V10.684H0Z" transform="translate(0 0.092)" fill="none"/>
    </clipPath>
    <clipPath id="clip-path-2">
      <path id="Clip_63" data-name="Clip 63" d="M0,0H6.424V8.587H0Z" transform="translate(0.013 0.062)" fill="none"/>
    </clipPath>
    <clipPath id="clip-path-3">
      <path id="Clip_70" data-name="Clip 70" d="M0,80H103.784V0H0Z" fill="none"/>
    </clipPath>
  </defs>
  <g id="Group_82" data-name="Group 82" opacity="0.5">
    <g id="Group_3" data-name="Group 3" transform="translate(0 44.324)">
      <path id="Clip_2-2" data-name="Clip 2" d="M0,0H7.5V10.684H0Z" transform="translate(0 0.092)" fill="none"/>
      <g id="Group_3-2" data-name="Group 3" clip-path="url(#clip-path)">
        <path id="Fill_1" data-name="Fill 1" d="M6.9,10.137a3.106,3.106,0,0,1-.6.255,7.688,7.688,0,0,1-.779.2,4.388,4.388,0,0,1-.9.09,4.961,4.961,0,0,1-1.85-.337A3.826,3.826,0,0,1,1.311,9.32,4.949,4.949,0,0,1,.349,7.635,6.855,6.855,0,0,1,0,5.364a6.855,6.855,0,0,1,.349-2.27,4.846,4.846,0,0,1,.975-1.686A4.128,4.128,0,0,1,2.825.36,5.014,5.014,0,0,1,4.751,0,5.415,5.415,0,0,1,6.278.2,6.425,6.425,0,0,1,7.5.689a2.234,2.234,0,0,0-.165.569q-.063.36-.1.6l-.076.03a3.123,3.123,0,0,0-.355-.4,3.991,3.991,0,0,0-.532-.434A3.158,3.158,0,0,0,5.587.7,2.369,2.369,0,0,0,4.751.554,3.373,3.373,0,0,0,3.364.839a2.972,2.972,0,0,0-1.115.876,4.3,4.3,0,0,0-.741,1.5,7.69,7.69,0,0,0-.266,2.15,7.69,7.69,0,0,0,.266,2.15,4.3,4.3,0,0,0,.741,1.5,2.966,2.966,0,0,0,1.115.877,3.373,3.373,0,0,0,1.387.285,2.547,2.547,0,0,0,.843-.135,4.122,4.122,0,0,0,1.292-.727q.259-.217.437-.382l.051.06-.114.884a1.633,1.633,0,0,1-.361.262" transform="translate(0 0.092)" fill="#fefefe"/>
      </g>
    </g>
    <path id="Fill_4" data-name="Fill 4" d="M3.243,7.567a3.826,3.826,0,0,1-1.154-.183A2.657,2.657,0,0,1,1.041,6.75,3.282,3.282,0,0,1,.287,5.573,4.829,4.829,0,0,1,0,3.807,4.829,4.829,0,0,1,.287,2.041,3.282,3.282,0,0,1,1.041.864,2.909,2.909,0,0,1,2.089.206,3.355,3.355,0,0,1,4.4.206a2.921,2.921,0,0,1,1.04.658A3.292,3.292,0,0,1,6.2,2.041a4.829,4.829,0,0,1,.287,1.766A4.829,4.829,0,0,1,6.2,5.573,3.292,3.292,0,0,1,5.445,6.75a2.664,2.664,0,0,1-1.04.635A3.808,3.808,0,0,1,3.243,7.567Zm0-7.078a1.71,1.71,0,0,0-.987.274,2,2,0,0,0-.641.742,3.631,3.631,0,0,0-.34,1.063,7.726,7.726,0,0,0,0,2.477,3.62,3.62,0,0,0,.34,1.062,1.992,1.992,0,0,0,.641.742,1.71,1.71,0,0,0,.987.275,1.712,1.712,0,0,0,.988-.275,1.992,1.992,0,0,0,.641-.742,3.62,3.62,0,0,0,.34-1.062,7.526,7.526,0,0,0,.1-1.238,7.526,7.526,0,0,0-.1-1.238,3.631,3.631,0,0,0-.34-1.063A2,2,0,0,0,4.231.764,1.712,1.712,0,0,0,3.243.49Z" transform="translate(7.568 47.568)" fill="#fefefe"/>
    <path id="Fill_6" data-name="Fill 6" d="M.081,1.6Q.063.827,0,.156A2.7,2.7,0,0,0,.561.234,1.145,1.145,0,0,0,.779.211l.28-.055Q1.022.78,1.022,1.4h.025A2.039,2.039,0,0,1,2.9,0a1.654,1.654,0,0,1,.609.117,1.919,1.919,0,0,1,.957.811,1.864,1.864,0,0,1,.236.616h.025A2.639,2.639,0,0,1,5.543.4,1.909,1.909,0,0,1,6.736,0,2.033,2.033,0,0,1,7.5.14a1.565,1.565,0,0,1,.606.437,2.091,2.091,0,0,1,.4.764,3.858,3.858,0,0,1,.144,1.123q0,.265-.012.577t-.025.725q-.013.414-.025.936T8.574,5.914q0,.421.006.811t.031.843a1.219,1.219,0,0,0-.274-.031H7.8a1.215,1.215,0,0,0-.274.031q.037-.39.081-1.576t.044-3.308a3.719,3.719,0,0,0-.069-.733,1.846,1.846,0,0,0-.219-.593,1.138,1.138,0,0,0-.4-.4A1.213,1.213,0,0,0,6.338.811a1.3,1.3,0,0,0-.764.219,1.656,1.656,0,0,0-.488.515,1.767,1.767,0,0,0-.157.343,2.527,2.527,0,0,0-.088.523q-.031.351-.044.983t-.012,1.74q0,.671.019,1.225t.043,1.209a4.713,4.713,0,0,0-1.084,0q.055-.858.077-1.747t.022-1.748q0-.733-.006-1.147T3.826,2.27a2.468,2.468,0,0,0-.068-.4,3.436,3.436,0,0,0-.118-.343,1.288,1.288,0,0,0-.428-.507,1.014,1.014,0,0,0-.6-.211,1.29,1.29,0,0,0-1.2.671A3.831,3.831,0,0,0,1.022,3.37V4.7q0,.7.019,1.474t.081,1.4a5.12,5.12,0,0,0-.561-.031A5.12,5.12,0,0,0,0,7.568q.062-.624.081-1.4T.1,4.7V3.074q0-.7-.019-1.474" transform="translate(16.216 47.568)" fill="#fefefe"/>
    <path id="Fill_8" data-name="Fill 8" d="M.063,10.811h0c.035-.4.059-.863.07-1.381s.016-1,.016-1.459V6.363C.149,5.9.143,5.411.132,4.9S.1,3.91.064,3.475a2.005,2.005,0,0,0,.477.077,2.009,2.009,0,0,0,.476-.077C.983,3.9.96,4.384.949,4.9s-.016,1-.016,1.46V7.969c0,.461.005.952.016,1.459s.034.977.068,1.381a4.012,4.012,0,0,0-.476-.029,3.779,3.779,0,0,0-.477.031ZM.541,1.575a.457.457,0,0,1-.382-.231A.963.963,0,0,1,0,.788.963.963,0,0,1,.159.231.459.459,0,0,1,.541,0,.458.458,0,0,1,.922.231a.963.963,0,0,1,.159.556.963.963,0,0,1-.159.556A.457.457,0,0,1,.541,1.575Z" transform="translate(27.027 44.324)" fill="#fefefe"/>
    <path id="Fill_10" data-name="Fill 10" d="M.651,6.329A2.174,2.174,0,0,0,1,6.673a1.912,1.912,0,0,0,.462.267,1.429,1.429,0,0,0,.553.107,1.448,1.448,0,0,0,.511-.092A1.366,1.366,0,0,0,2.96,6.7a1.2,1.2,0,0,0,.3-.428,1.5,1.5,0,0,0,.112-.6,1,1,0,0,0-.245-.726,1.917,1.917,0,0,0-.609-.413,6.093,6.093,0,0,0-.8-.283,3.183,3.183,0,0,1-.8-.344,1.934,1.934,0,0,1-.609-.589A1.8,1.8,0,0,1,.07,2.309a2.669,2.669,0,0,1,.154-.925A2.056,2.056,0,0,1,.672.657,2.075,2.075,0,0,1,1.4.176,2.629,2.629,0,0,1,2.393,0a2.224,2.224,0,0,1,.875.153q.357.153.679.275a3.562,3.562,0,0,0-.21.565,4.359,4.359,0,0,0-.126.52H3.443A1.456,1.456,0,0,0,3.009.856a1.149,1.149,0,0,0-.8-.29,1.222,1.222,0,0,0-.42.076,1.138,1.138,0,0,0-.378.229,1.212,1.212,0,0,0-.28.4,1.385,1.385,0,0,0-.112.581,1.079,1.079,0,0,0,.245.757,1.709,1.709,0,0,0,.609.421,6.015,6.015,0,0,0,.8.268,3.345,3.345,0,0,1,.8.321,1.785,1.785,0,0,1,.609.573A1.8,1.8,0,0,1,4.324,5.2a2.284,2.284,0,0,1-.175.872,2.451,2.451,0,0,1-.5.772,2.292,2.292,0,0,1-.791.535,2.723,2.723,0,0,1-1.05.191A3.61,3.61,0,0,1,.728,7.43,3.185,3.185,0,0,1,0,7.109a4.213,4.213,0,0,0,.175-.542,2.324,2.324,0,0,0,.091-.573H.434a1.659,1.659,0,0,0,.217.336" transform="translate(29.189 47.568)" fill="#fefefe"/>
    <path id="Fill_12" data-name="Fill 12" d="M.063,10.811h0c.035-.4.059-.863.07-1.381s.016-1,.016-1.459V6.363C.149,5.9.143,5.411.132,4.9S.1,3.91.064,3.475a2.005,2.005,0,0,0,.477.077,2.009,2.009,0,0,0,.476-.077C.983,3.9.96,4.384.949,4.9s-.016,1-.016,1.46V7.969c0,.461.005.952.016,1.459s.034.977.068,1.381a4.012,4.012,0,0,0-.476-.029,3.779,3.779,0,0,0-.477.031ZM.541,1.575a.457.457,0,0,1-.382-.231A.963.963,0,0,1,0,.788.963.963,0,0,1,.159.231.459.459,0,0,1,.541,0,.461.461,0,0,1,.923.231a.969.969,0,0,1,.158.556.969.969,0,0,1-.158.556A.46.46,0,0,1,.541,1.575Z" transform="translate(34.595 44.324)" fill="#fefefe"/>
    <path id="Fill_14" data-name="Fill 14" d="M3.243,10.811a3.988,3.988,0,0,1-1.154-.175,2.678,2.678,0,0,1-1.048-.6A3.1,3.1,0,0,1,.287,8.915,4.384,4.384,0,0,1,0,7.236,4.381,4.381,0,0,1,.287,5.558a3.117,3.117,0,0,1,.754-1.12,2.933,2.933,0,0,1,1.048-.625,3.515,3.515,0,0,1,2.316,0,2.956,2.956,0,0,1,1.041.625A3.135,3.135,0,0,1,6.2,5.558a4.381,4.381,0,0,1,.287,1.678A4.384,4.384,0,0,1,6.2,8.915a3.123,3.123,0,0,1-.753,1.119,2.694,2.694,0,0,1-1.041.6A3.97,3.97,0,0,1,3.243,10.811Zm0-6.728a1.776,1.776,0,0,0-.987.261,1.92,1.92,0,0,0-.64.7,3.363,3.363,0,0,0-.341,1.01,6.986,6.986,0,0,0,0,2.354,3.346,3.346,0,0,0,.341,1.01,1.915,1.915,0,0,0,.64.7,1.776,1.776,0,0,0,.987.262,1.777,1.777,0,0,0,.988-.262,1.92,1.92,0,0,0,.641-.7,3.32,3.32,0,0,0,.34-1.01,6.806,6.806,0,0,0,.1-1.177,6.806,6.806,0,0,0-.1-1.177,3.337,3.337,0,0,0-.34-1.01,1.925,1.925,0,0,0-.641-.7A1.778,1.778,0,0,0,3.243,4.083ZM2.9,2.514H2.336L4.3.348A.881.881,0,0,1,4.9,0a.485.485,0,0,1,.286.116.411.411,0,0,1,.154.349.546.546,0,0,1-.16.414,3.1,3.1,0,0,1-.32.268L2.9,2.514Z" transform="translate(37.838 44.324)" fill="#fefefe"/>
    <path id="Fill_16" data-name="Fill 16" d="M3.171,1.412a.945.945,0,0,0-.854-.6,1.153,1.153,0,0,0-1.094.671A4.183,4.183,0,0,0,.876,3.37V4.7q0,.7.016,1.474t.069,1.4a3.767,3.767,0,0,0-.48-.031A3.766,3.766,0,0,0,0,7.568q.053-.624.07-1.4T.086,4.7V3.074q0-.7-.016-1.474T0,.156A2,2,0,0,0,.481.234.846.846,0,0,0,.667.211L.908.156Q.876.78.876,1.4H.9A2.971,2.971,0,0,1,1.615.366a1.46,1.46,0,0,1,1-.366,1.594,1.594,0,0,1,.605.125,1.394,1.394,0,0,1,.552.429,2.394,2.394,0,0,1,.4.827,4.785,4.785,0,0,1,.155,1.334q0,.671-.021,1.381T4.281,5.6V6.616q0,.25.005.491t.016.461a3.141,3.141,0,0,0-.454-.031,3.062,3.062,0,0,0-.443.031q.022-.811.048-1.669t.027-1.763V3.183a3.983,3.983,0,0,0-.31-1.771" transform="translate(46.486 47.568)" fill="#fefefe"/>
    <path id="Fill_18" data-name="Fill 18" d="M4.125,6.679Q2.48,4.564.835,2.471.822,2.9.81,3.609T.8,5.549q0,.318.006.788t.013.986q.007.515.019,1.046t.025.985q.013.455.025.8t.025.462a2.964,2.964,0,0,0-.443-.03,3.324,3.324,0,0,0-.468.03c.017-.1.036-.288.057-.561s.04-.6.057-.978S.15,8.284.171,7.839.209,6.95.221,6.5s.023-.88.031-1.3.013-.8.013-1.137q0-1.456-.007-2.5T.228,0h.2Q1.2,1,2.082,2.146T3.828,4.4q.866,1.115,1.644,2.107T6.834,8.2V6.141q0-1.592-.019-3.1T6.732.2a1.54,1.54,0,0,0,.431.076A1.5,1.5,0,0,0,7.568.2q-.026.334-.057,1T7.447,2.623q-.032.758-.057,1.486T7.365,5.277v.91q0,.516.007,1.077t.013,1.13q.006.569.013,1.061t.006.857v.5H7.226q-1.455-2.016-3.1-4.132" transform="translate(56.216 44.324)" fill="#fefefe"/>
    <path id="Fill_20" data-name="Fill 20" d="M1.694,7.567A1.864,1.864,0,0,1,1.07,7.46a1.372,1.372,0,0,1-.541-.351,1.933,1.933,0,0,1-.382-.589A2,2,0,0,1,0,5.733,1.992,1.992,0,0,1,.478,4.312,2.416,2.416,0,0,1,1.8,3.639c.452-.091.814-.17,1.076-.237A2.34,2.34,0,0,0,3.444,3.2a.432.432,0,0,0,.223-.252,1.519,1.519,0,0,0,.039-.374,3.449,3.449,0,0,0-.077-.734,1.861,1.861,0,0,0-.242-.611A1.319,1.319,0,0,0,2.952.8,1.254,1.254,0,0,0,2.3.643a1.781,1.781,0,0,0-.952.274,1.694,1.694,0,0,0-.658.765H.55v-.8a3.532,3.532,0,0,1,1.06-.7,2.81,2.81,0,0,1,1-.184,2.173,2.173,0,0,1,.844.161,1.819,1.819,0,0,1,.656.458,2.172,2.172,0,0,1,.428.718,2.668,2.668,0,0,1,.156.925C4.69,2.819,4.681,3.4,4.665,4c-.018.562-.026,1.16-.026,1.827,0,.133,0,.26.006.39a1.361,1.361,0,0,0,.058.367.726.726,0,0,0,.147.267.367.367,0,0,0,.288.107c.04,0,.084,0,.134-.007a.285.285,0,0,0,.134-.054v.337a1.324,1.324,0,0,1-.352.122,2.2,2.2,0,0,1-.466.046.8.8,0,0,1-.634-.252,1.13,1.13,0,0,1-.26-.651,3.565,3.565,0,0,1-.9.811A2.156,2.156,0,0,1,1.694,7.567ZM3.706,3.608a2.791,2.791,0,0,1-.5.153c-.2.042-.39.085-.579.13a4.711,4.711,0,0,0-.579.176,1.756,1.756,0,0,0-.508.29,1.346,1.346,0,0,0-.356.459,1.619,1.619,0,0,0-.133.7,1.542,1.542,0,0,0,.343,1.086,1.033,1.033,0,0,0,.763.366,1.382,1.382,0,0,0,.883-.321A2.262,2.262,0,0,0,3.655,5.9Z" transform="translate(64.865 47.568)" fill="#fefefe"/>
    <path id="Fill_22" data-name="Fill 22" d="M.286,2.095A3.5,3.5,0,0,1,1.033.91,2.892,2.892,0,0,1,2.092.222,3.49,3.49,0,0,1,3.313,0a3.719,3.719,0,0,1,1.28.207,2.123,2.123,0,0,1,.812.466,4.926,4.926,0,0,0-.162.481q-.072.252-.124.528h-.1a2.2,2.2,0,0,0-.247-.405A2.234,2.234,0,0,0,4.4.895,2.042,2.042,0,0,0,3.924.6,1.4,1.4,0,0,0,3.353.489,1.927,1.927,0,0,0,2.346.741a1.984,1.984,0,0,0-.689.7,3.305,3.305,0,0,0-.39,1.047,6.529,6.529,0,0,0-.123,1.307,4.088,4.088,0,0,0,.572,2.377,1.928,1.928,0,0,0,1.676.8,1.8,1.8,0,0,0,.532-.084,2.743,2.743,0,0,0,.533-.229,2.849,2.849,0,0,0,.487-.344,2.7,2.7,0,0,0,.4-.428l.065.046a5.351,5.351,0,0,0-.078.749,3.48,3.48,0,0,1-.968.627,2.9,2.9,0,0,1-1.2.26,3.489,3.489,0,0,1-1.124-.191,2.638,2.638,0,0,1-1.02-.642,3.307,3.307,0,0,1-.735-1.17A4.867,4.867,0,0,1,0,3.807,4.623,4.623,0,0,1,.286,2.095" transform="translate(71.351 47.568)" fill="#fefefe"/>
    <path id="Fill_24" data-name="Fill 24" d="M.063,10.811h0c.035-.4.059-.863.07-1.381s.016-1,.016-1.459V6.363C.149,5.9.143,5.411.132,4.9S.1,3.91.064,3.475a2.005,2.005,0,0,0,.477.077,2.024,2.024,0,0,0,.477-.077C.983,3.9.96,4.379.949,4.9c-.01.48-.015.971-.015,1.46V7.969c0,.489.005.98.015,1.459.011.524.034.975.069,1.381a4.044,4.044,0,0,0-.477-.029,3.779,3.779,0,0,0-.477.031ZM.541,1.575a.46.46,0,0,1-.383-.231A.969.969,0,0,1,0,.788.969.969,0,0,1,.158.231.462.462,0,0,1,.541,0,.461.461,0,0,1,.923.231a.963.963,0,0,1,.158.556.963.963,0,0,1-.158.556A.46.46,0,0,1,.541,1.575Z" transform="translate(78.919 44.324)" fill="#fefefe"/>
    <path id="Fill_26" data-name="Fill 26" d="M3.244,7.567a3.828,3.828,0,0,1-1.155-.183A2.657,2.657,0,0,1,1.041,6.75,3.282,3.282,0,0,1,.287,5.573,4.846,4.846,0,0,1,0,3.807,4.846,4.846,0,0,1,.287,2.041,3.282,3.282,0,0,1,1.041.864,2.909,2.909,0,0,1,2.089.206,3.355,3.355,0,0,1,4.4.206,2.923,2.923,0,0,1,5.446.864,3.306,3.306,0,0,1,6.2,2.041a4.849,4.849,0,0,1,.286,1.766A4.849,4.849,0,0,1,6.2,5.573,3.306,3.306,0,0,1,5.446,6.75,2.666,2.666,0,0,1,4.4,7.385,3.805,3.805,0,0,1,3.244,7.567Zm0-7.078a1.712,1.712,0,0,0-.988.274,2,2,0,0,0-.64.742,3.631,3.631,0,0,0-.341,1.063,7.726,7.726,0,0,0,0,2.477,3.619,3.619,0,0,0,.341,1.062,1.991,1.991,0,0,0,.64.742,1.712,1.712,0,0,0,.988.275,1.71,1.71,0,0,0,.987-.275,1.986,1.986,0,0,0,.641-.742,3.62,3.62,0,0,0,.34-1.062,7.526,7.526,0,0,0,.1-1.238,7.526,7.526,0,0,0-.1-1.238,3.631,3.631,0,0,0-.34-1.063A1.991,1.991,0,0,0,4.231.764,1.71,1.71,0,0,0,3.244.49Z" transform="translate(81.081 47.568)" fill="#fefefe"/>
    <path id="Fill_28" data-name="Fill 28" d="M3.171,1.412a.945.945,0,0,0-.854-.6,1.152,1.152,0,0,0-1.094.671A4.18,4.18,0,0,0,.876,3.37V4.7q0,.7.016,1.474t.069,1.4a3.771,3.771,0,0,0-.48-.031A3.764,3.764,0,0,0,0,7.568q.054-.624.07-1.4T.086,4.7V3.074q0-.7-.016-1.474T0,.156A2,2,0,0,0,.481.234.846.846,0,0,0,.667.211L.908.156Q.876.78.876,1.4H.9A2.973,2.973,0,0,1,1.615.366a1.461,1.461,0,0,1,1-.366,1.593,1.593,0,0,1,.6.125,1.393,1.393,0,0,1,.552.429,2.394,2.394,0,0,1,.4.827,4.8,4.8,0,0,1,.155,1.334q0,.671-.021,1.381T4.282,5.6V6.616q0,.25.005.491t.016.461a3.139,3.139,0,0,0-.454-.031,3.062,3.062,0,0,0-.443.031q.022-.811.048-1.669t.027-1.763V3.183a3.981,3.981,0,0,0-.31-1.771" transform="translate(89.73 47.568)" fill="#fefefe"/>
    <path id="Fill_30" data-name="Fill 30" d="M1.694,7.567A1.864,1.864,0,0,1,1.07,7.46a1.382,1.382,0,0,1-.542-.351,1.928,1.928,0,0,1-.382-.589A2,2,0,0,1,0,5.733,2,2,0,0,1,.477,4.312,2.423,2.423,0,0,1,1.8,3.639c.452-.091.814-.17,1.076-.237A2.34,2.34,0,0,0,3.444,3.2a.435.435,0,0,0,.223-.252,1.528,1.528,0,0,0,.038-.374,3.45,3.45,0,0,0-.077-.734,1.861,1.861,0,0,0-.243-.611A1.307,1.307,0,0,0,2.952.8,1.254,1.254,0,0,0,2.3.643a1.781,1.781,0,0,0-.952.274,1.694,1.694,0,0,0-.658.765H.55v-.8a3.517,3.517,0,0,1,1.06-.7,2.8,2.8,0,0,1,1-.184,2.173,2.173,0,0,1,.844.161,1.819,1.819,0,0,1,.656.458,2.172,2.172,0,0,1,.428.718,2.669,2.669,0,0,1,.155.925c0,.588-.008,1.172-.025,1.735s-.025,1.178-.025,1.827c0,.133,0,.26.006.39a1.361,1.361,0,0,0,.058.367.711.711,0,0,0,.147.267.366.366,0,0,0,.287.107c.04,0,.085,0,.135-.007a.29.29,0,0,0,.134-.054v.337a1.324,1.324,0,0,1-.352.122,2.2,2.2,0,0,1-.466.046.8.8,0,0,1-.635-.252A1.135,1.135,0,0,1,3.693,6.5a3.565,3.565,0,0,1-.9.811A2.161,2.161,0,0,1,1.694,7.567ZM3.705,3.608a2.756,2.756,0,0,1-.5.153c-.187.04-.382.083-.579.13a4.711,4.711,0,0,0-.579.176,1.774,1.774,0,0,0-.509.29,1.354,1.354,0,0,0-.355.459,1.617,1.617,0,0,0-.134.7,1.541,1.541,0,0,0,.344,1.086,1.033,1.033,0,0,0,.762.366,1.384,1.384,0,0,0,.884-.321A2.262,2.262,0,0,0,3.655,5.9Z" transform="translate(96.216 47.568)" fill="#fefefe"/>
    <path id="Fill_32" data-name="Fill 32" d="M.09,3.068Q.084,2.5.072,1.936T.042.867Q.024.359,0,0A2.716,2.716,0,0,0,.54.071,2.717,2.717,0,0,0,1.081,0q-.024.358-.042.867t-.03,1.068Q1,2.495.991,3.068T.985,4.129V6.724q0,.488.006,1.061t.018,1.133q.012.559.03,1.061t.042.832a5.133,5.133,0,0,0-1.081,0q.024-.33.042-.832t.03-1.061Q.084,8.359.09,7.786T.1,6.724V4.129Q.1,3.642.09,3.068" transform="translate(102.703 44.324)" fill="#fefefe"/>
    <path id="Fill_34" data-name="Fill 34" d="M2.4,10.811a2.243,2.243,0,0,1-.881-.184,1.99,1.99,0,0,1-.769-.6A3.248,3.248,0,0,1,.207,8.951,5.331,5.331,0,0,1,0,7.373,4.934,4.934,0,0,1,.225,5.8,3.572,3.572,0,0,1,.81,4.691a2.412,2.412,0,0,1,.816-.665,2.109,2.109,0,0,1,.917-.22A1.857,1.857,0,0,1,4.365,5.222h.023V3.835c0-.387,0-.741-.006-1.083q0-.33-.007-.643l0-.4q0-.313-.007-.6l0-.33C4.354.444,4.348.2,4.341,0c.077.015.163.031.272.05a1.586,1.586,0,0,0,.261.022A1.486,1.486,0,0,0,5.127.05L5.405,0c-.023.292-.043.732-.059,1.309C5.329,1.937,5.315,2.573,5.3,3.2c-.012.688-.022,1.4-.03,2.123-.008.805-.012,1.439-.012,2,0,.6,0,1.195.012,1.754q.012.779.024,1.6a3.856,3.856,0,0,0-.462-.028,3.789,3.789,0,0,0-.449.028l.035-1.345H4.4a3.586,3.586,0,0,1-.255.489,2.319,2.319,0,0,1-.4.488,1.979,1.979,0,0,1-.574.368A1.962,1.962,0,0,1,2.4,10.811ZM2.709,4.4a1.208,1.208,0,0,0-.74.233,1.782,1.782,0,0,0-.52.651,3.7,3.7,0,0,0-.308.977,6.83,6.83,0,0,0-.1,1.2,5.536,5.536,0,0,0,.148,1.4,2.843,2.843,0,0,0,.378.885,1.264,1.264,0,0,0,.526.46,1.469,1.469,0,0,0,.58.127,1.208,1.208,0,0,0,.793-.275,2.185,2.185,0,0,0,.55-.722,3.828,3.828,0,0,0,.319-1.012,6.529,6.529,0,0,0,.1-1.132A4.025,4.025,0,0,0,4,5.116,1.424,1.424,0,0,0,2.709,4.4Z" transform="translate(9.73 57.297)" fill="#fefefe"/>
    <path id="Fill_36" data-name="Fill 36" d="M3.012,7.567a2.908,2.908,0,0,1-1.22-.252,2.7,2.7,0,0,1-.955-.734,3.439,3.439,0,0,1-.62-1.139A4.523,4.523,0,0,1,0,4.021,5.231,5.231,0,0,1,.725,1.07,2.4,2.4,0,0,1,2.84,0,2.417,2.417,0,0,1,3.974.252a2.423,2.423,0,0,1,.8.673,2.842,2.842,0,0,1,.478.985,4.568,4.568,0,0,1,.155,1.208c0,.11,0,.207-.006.3s-.009.185-.018.3L4.652,3.7H4.638l-.585-.014c-.449-.01-.895-.015-1.326-.015-.267,0-.533.005-.813.015L1.551,3.7H1.531L1.1,3.715a1.571,1.571,0,0,0-.013.229v.2a4.2,4.2,0,0,0,.143,1.116,2.722,2.722,0,0,0,.415.895,2.07,2.07,0,0,0,.67.6,1.859,1.859,0,0,0,.917.221,1.64,1.64,0,0,0,.509-.085,2.594,2.594,0,0,0,.508-.229,2.722,2.722,0,0,0,.464-.345A2.611,2.611,0,0,0,5.1,5.886l.061.046-.074.749a3.342,3.342,0,0,1-.923.627A2.683,2.683,0,0,1,3.012,7.567ZM2.864.49a1.187,1.187,0,0,0-.775.259,2.1,2.1,0,0,0-.52.65,3.5,3.5,0,0,0-.311.857,5.584,5.584,0,0,0-.131.879l.34.013.46.018c.268.01.541.014.812.014s.56,0,.831-.014l.52-.02.3-.011a7.157,7.157,0,0,0-.056-.872,3.227,3.227,0,0,0-.222-.856A1.8,1.8,0,0,0,3.645.749,1.154,1.154,0,0,0,2.864.49Z" transform="translate(17.297 60.541)" fill="#fefefe"/>
    <path id="Fill_38" data-name="Fill 38" d="M.884,10.812h0a2.826,2.826,0,0,0-.441-.031A2.947,2.947,0,0,0,0,10.811C.634,9.039,1.27,7.231,1.889,5.436,2.544,3.533,3.15,1.755,3.742,0h.227l.023.072.6,1.867c.257.8.474,1.47.681,2.108.219.671.454,1.392.693,2.116s.451,1.36.652,1.954c.191.566.376,1.109.55,1.614.168.484.3.837.4,1.079a1.894,1.894,0,0,0-.316-.029H6.617a1.745,1.745,0,0,0-.317.031c-.055-.233-.131-.521-.227-.857-.091-.318-.194-.661-.317-1.05l-.158-.5-.2-.616c-.117-.367-.23-.729-.335-1.074-.275-.011-.53-.018-.777-.023-.263-.005-.528-.008-.789-.008s-.491,0-.729.008c-.215,0-.447.011-.73.023-.256.807-.489,1.579-.693,2.294s-.364,1.33-.466,1.8Zm2.69-8.727-1.3,3.923c.213,0,.425.006.645.015s.427.015.645.015c.25,0,.469,0,.67-.007.251-.006.47-.014.67-.023Z" transform="translate(25.946 57.297)" fill="#fefefe"/>
    <path id="Fill_40" data-name="Fill 40" d="M.286,2.095A3.5,3.5,0,0,1,1.033.91,2.893,2.893,0,0,1,2.092.222,3.488,3.488,0,0,1,3.313,0a3.712,3.712,0,0,1,1.28.207,2.128,2.128,0,0,1,.812.466,4.981,4.981,0,0,0-.163.481c-.047.168-.089.344-.123.528h-.1a2.194,2.194,0,0,0-.247-.405A2.244,2.244,0,0,0,4.4.895,2.049,2.049,0,0,0,3.924.6,1.4,1.4,0,0,0,3.352.49,1.926,1.926,0,0,0,2.345.742a1.981,1.981,0,0,0-.688.7,3.305,3.305,0,0,0-.39,1.047,6.516,6.516,0,0,0-.123,1.307,4.088,4.088,0,0,0,.572,2.377,1.927,1.927,0,0,0,1.676.8,1.8,1.8,0,0,0,.533-.084,2.729,2.729,0,0,0,.533-.229,2.843,2.843,0,0,0,.487-.344,2.678,2.678,0,0,0,.4-.428l.065.046a5.26,5.26,0,0,0-.078.749,3.476,3.476,0,0,1-.968.627,2.9,2.9,0,0,1-1.2.26,3.49,3.49,0,0,1-1.124-.191,2.637,2.637,0,0,1-1.02-.642,3.3,3.3,0,0,1-.734-1.17A4.862,4.862,0,0,1,0,3.807,4.624,4.624,0,0,1,.286,2.095" transform="translate(34.595 60.541)" fill="#fefefe"/>
    <path id="Fill_42" data-name="Fill 42" d="M2.8,1.264A1.046,1.046,0,0,0,2.4,1.186a1,1,0,0,0-.574.172,1.443,1.443,0,0,0-.427.46,2.38,2.38,0,0,0-.267.687,3.71,3.71,0,0,0-.093.85V5.071q0,1.046.007,1.6t.047.9a4.545,4.545,0,0,0-.534-.031A4.773,4.773,0,0,0,0,7.568q.04-.53.047-1.443T.053,3.885v-.5q0-.609-.007-1.4T0,.156C.1.177.191.195.28.211a1.638,1.638,0,0,0,.28.023A1.489,1.489,0,0,0,.814.211C.9.195,1,.177,1.094.156q-.053.561-.06.889t-.007.624l.027.016Q1.841,0,2.816,0a1.2,1.2,0,0,1,.207.016.958.958,0,0,1,.22.078,2,2,0,0,0-.08.57q-.014.382-.013.694l-.094.078a.587.587,0,0,0-.26-.172" transform="translate(41.081 60.541)" fill="#fefefe"/>
    <path id="Fill_44" data-name="Fill 44" d="M3.012,7.567a2.916,2.916,0,0,1-1.221-.252,2.7,2.7,0,0,1-.954-.734,3.439,3.439,0,0,1-.62-1.139A4.523,4.523,0,0,1,0,4.021,5.231,5.231,0,0,1,.725,1.07,2.4,2.4,0,0,1,2.84,0,2.417,2.417,0,0,1,3.974.252a2.441,2.441,0,0,1,.8.673,2.842,2.842,0,0,1,.478.985,4.6,4.6,0,0,1,.155,1.208c0,.089,0,.181-.006.3,0,.08-.009.185-.018.3L4.63,3.7l-.575-.013c-.45-.01-.9-.015-1.327-.015-.267,0-.533.005-.813.015L1.551,3.7H1.531L1.1,3.715a1.571,1.571,0,0,0-.013.229v.2a4.236,4.236,0,0,0,.142,1.116,2.742,2.742,0,0,0,.416.895,2.07,2.07,0,0,0,.67.6,1.859,1.859,0,0,0,.917.221,1.64,1.64,0,0,0,.509-.085,2.594,2.594,0,0,0,.508-.229,2.722,2.722,0,0,0,.464-.345A2.611,2.611,0,0,0,5.1,5.886l.061.046-.074.749a3.342,3.342,0,0,1-.923.627A2.683,2.683,0,0,1,3.012,7.567ZM2.864.49a1.187,1.187,0,0,0-.775.259,2.111,2.111,0,0,0-.521.65,3.531,3.531,0,0,0-.31.857,5.584,5.584,0,0,0-.131.879l.34.013.46.018c.268.01.541.014.812.014s.56,0,.831-.014l.544-.02h.007l.267-.01a7.157,7.157,0,0,0-.056-.872,3.194,3.194,0,0,0-.223-.856A1.782,1.782,0,0,0,3.645.749,1.154,1.154,0,0,0,2.864.49Z" transform="translate(45.405 60.541)" fill="#fefefe"/>
    <path id="Fill_46" data-name="Fill 46" d="M2.4,10.811a2.246,2.246,0,0,1-.882-.184,2,2,0,0,1-.769-.6A3.263,3.263,0,0,1,.207,8.951,5.3,5.3,0,0,1,0,7.373,4.934,4.934,0,0,1,.225,5.8,3.572,3.572,0,0,1,.81,4.691a2.4,2.4,0,0,1,.816-.665,2.107,2.107,0,0,1,.916-.22A1.857,1.857,0,0,1,4.364,5.222h.023V3.835c0-.357,0-.721-.005-1.083q-.005-.43-.009-.83V1.913l0-.2q0-.364-.009-.7V1l0-.224C4.354.444,4.348.2,4.341,0c.077.015.163.031.272.05a1.6,1.6,0,0,0,.26.022A1.491,1.491,0,0,0,5.127.05L5.405,0c-.024.293-.044.733-.059,1.309C5.33,1.858,5.317,2.476,5.3,3.2c-.012.688-.022,1.4-.03,2.123-.008.7-.012,1.368-.012,2,0,.676,0,1.25.012,1.754q0,.319.01.644c0,.315.009.633.015.955a3.912,3.912,0,0,0-.462-.028,3.819,3.819,0,0,0-.45.028l.036-1.345H4.4a3.586,3.586,0,0,1-.255.489,2.3,2.3,0,0,1-.4.488,1.961,1.961,0,0,1-.573.368A1.962,1.962,0,0,1,2.4,10.811ZM2.708,4.4a1.207,1.207,0,0,0-.739.233,1.793,1.793,0,0,0-.521.651,3.67,3.67,0,0,0-.307.977,6.744,6.744,0,0,0-.1,1.2,5.572,5.572,0,0,0,.148,1.4,2.865,2.865,0,0,0,.379.885,1.264,1.264,0,0,0,.526.46,1.469,1.469,0,0,0,.58.127,1.208,1.208,0,0,0,.793-.275,2.17,2.17,0,0,0,.549-.722,3.8,3.8,0,0,0,.32-1.012,6.529,6.529,0,0,0,.1-1.132A4.025,4.025,0,0,0,4,5.116,1.427,1.427,0,0,0,2.708,4.4Z" transform="translate(51.892 57.297)" fill="#fefefe"/>
    <path id="Fill_48" data-name="Fill 48" d="M.063,10.811h0c.035-.4.059-.862.07-1.381s.016-1,.016-1.459V6.363C.149,5.9.143,5.411.132,4.9S.1,3.91.064,3.475a2.005,2.005,0,0,0,.477.077,2.009,2.009,0,0,0,.476-.077C.983,3.9.96,4.384.949,4.9c-.011.57-.016,1.034-.016,1.46V7.969c0,.421.005.9.016,1.459.011.512.034.977.068,1.381a4.012,4.012,0,0,0-.476-.029,3.779,3.779,0,0,0-.477.031ZM.541,1.575a.462.462,0,0,1-.383-.231A.969.969,0,0,1,0,.788.969.969,0,0,1,.158.231.462.462,0,0,1,.541,0,.458.458,0,0,1,.922.231a.958.958,0,0,1,.159.556.958.958,0,0,1-.159.556A.458.458,0,0,1,.541,1.575Z" transform="translate(59.459 57.297)" fill="#fefefe"/>
    <path id="Fill_50" data-name="Fill 50" d="M1.864,0q-.037.531-.056,1.041T1.765,2.068q.136,0,.51-.007t.807-.035a.6.6,0,0,0-.013.154v.293a.523.523,0,0,0,.013.14c-.108-.009-.22-.016-.336-.021s-.24-.007-.373-.007H1.765c-.009.037-.019.186-.031.447s-.023.571-.032.929-.014.733-.018,1.125-.006.741-.006,1.048q0,.391.019.769a2.586,2.586,0,0,0,.118.677,1.114,1.114,0,0,0,.3.482.818.818,0,0,0,.571.181,1.736,1.736,0,0,0,.267-.028,1.925,1.925,0,0,0,.292-.07v.335c-.141.028-.3.063-.466.1a2.05,2.05,0,0,1-.491.063,1.445,1.445,0,0,1-1.156-.433A1.9,1.9,0,0,1,.758,6.944q0-.377.013-.817T.8,5.163Q.82,4.639.833,4T.845,2.585h-.4c-.066,0-.137,0-.211.007S.083,2.6,0,2.613c.008-.056.014-.109.019-.161s.006-.1.006-.161,0-.093-.006-.139S.008,2.059,0,2.012q.559.042.821.042Q.807,1.775.8,1.355T.771.489L1.8,0Z" transform="translate(61.622 59.459)" fill="#fefefe"/>
    <path id="Fill_52" data-name="Fill 52" d="M1.694,7.567A1.886,1.886,0,0,1,1.07,7.46a1.372,1.372,0,0,1-.541-.351,1.933,1.933,0,0,1-.382-.589A2,2,0,0,1,0,5.733,2,2,0,0,1,.478,4.311,2.414,2.414,0,0,1,1.8,3.639c.452-.091.814-.17,1.076-.237A2.34,2.34,0,0,0,3.444,3.2a.432.432,0,0,0,.223-.252,1.519,1.519,0,0,0,.039-.374,3.508,3.508,0,0,0-.077-.734,1.882,1.882,0,0,0-.243-.611A1.319,1.319,0,0,0,2.952.8,1.254,1.254,0,0,0,2.3.643a1.781,1.781,0,0,0-.952.274,1.694,1.694,0,0,0-.658.765H.55v-.8a3.532,3.532,0,0,1,1.06-.7,2.813,2.813,0,0,1,1-.184,2.171,2.171,0,0,1,.843.161,1.831,1.831,0,0,1,.657.458,2.18,2.18,0,0,1,.427.719,2.658,2.658,0,0,1,.156.924C4.69,2.819,4.681,3.4,4.665,4c-.018.562-.026,1.16-.026,1.827,0,.133,0,.26.006.39a1.361,1.361,0,0,0,.058.367.726.726,0,0,0,.147.267.367.367,0,0,0,.288.107,1.178,1.178,0,0,0,.134-.008.274.274,0,0,0,.134-.053v.337a1.356,1.356,0,0,1-.352.122,2.173,2.173,0,0,1-.465.045.8.8,0,0,1-.635-.252,1.124,1.124,0,0,1-.26-.65,3.565,3.565,0,0,1-.9.811A2.156,2.156,0,0,1,1.694,7.567ZM3.706,3.608a2.791,2.791,0,0,1-.5.153c-.2.042-.39.085-.579.13a4.7,4.7,0,0,0-.578.176,1.75,1.75,0,0,0-.509.29,1.346,1.346,0,0,0-.356.459,1.619,1.619,0,0,0-.133.7A1.538,1.538,0,0,0,1.391,6.6a1.032,1.032,0,0,0,.763.367,1.387,1.387,0,0,0,.884-.321A2.269,2.269,0,0,0,3.655,5.9Z" transform="translate(64.865 60.541)" fill="#fefefe"/>
    <path id="Fill_54" data-name="Fill 54" d="M.286,2.095A3.5,3.5,0,0,1,1.033.91,2.9,2.9,0,0,1,2.092.222,3.49,3.49,0,0,1,3.313,0a3.714,3.714,0,0,1,1.28.207,2.126,2.126,0,0,1,.812.466,4.819,4.819,0,0,0-.162.481q-.072.252-.124.528h-.1a2.187,2.187,0,0,0-.247-.405A2.233,2.233,0,0,0,4.4.895,2.048,2.048,0,0,0,3.924.6,1.4,1.4,0,0,0,3.352.49,1.925,1.925,0,0,0,2.345.742a1.977,1.977,0,0,0-.688.7,3.305,3.305,0,0,0-.39,1.047,6.531,6.531,0,0,0-.123,1.307,4.088,4.088,0,0,0,.572,2.377,1.927,1.927,0,0,0,1.676.8,1.8,1.8,0,0,0,.533-.084,2.75,2.75,0,0,0,.533-.229,2.849,2.849,0,0,0,.487-.344,2.678,2.678,0,0,0,.4-.428l.065.046a5.351,5.351,0,0,0-.078.749,3.469,3.469,0,0,1-.968.627,2.9,2.9,0,0,1-1.2.26,3.491,3.491,0,0,1-1.124-.191,2.64,2.64,0,0,1-1.02-.642A3.3,3.3,0,0,1,.28,5.565,4.858,4.858,0,0,1,0,3.807,4.624,4.624,0,0,1,.286,2.095" transform="translate(71.351 60.541)" fill="#fefefe"/>
    <path id="Fill_56" data-name="Fill 56" d="M.063,10.811h0c.035-.4.059-.862.07-1.381s.016-1,.016-1.459V6.363C.149,5.9.143,5.411.132,4.9S.1,3.91.064,3.475a2.005,2.005,0,0,0,.477.077,2.009,2.009,0,0,0,.476-.077C.983,3.9.96,4.384.949,4.9s-.016,1-.016,1.46V7.969c0,.461.005.952.016,1.459s.034.977.068,1.381a4.012,4.012,0,0,0-.476-.029,3.779,3.779,0,0,0-.477.031ZM.541,1.575a.462.462,0,0,1-.383-.231A.969.969,0,0,1,0,.788.969.969,0,0,1,.158.231.462.462,0,0,1,.541,0,.458.458,0,0,1,.922.231a.963.963,0,0,1,.159.556.963.963,0,0,1-.159.556A.458.458,0,0,1,.541,1.575Z" transform="translate(78.919 57.297)" fill="#fefefe"/>
    <path id="Fill_58" data-name="Fill 58" d="M3.244,10.811a3.99,3.99,0,0,1-1.155-.175,2.678,2.678,0,0,1-1.048-.6A3.114,3.114,0,0,1,.287,8.915,4.4,4.4,0,0,1,0,7.236,4.4,4.4,0,0,1,.287,5.558a3.126,3.126,0,0,1,.754-1.12,2.933,2.933,0,0,1,1.048-.625,3.515,3.515,0,0,1,2.316,0,2.944,2.944,0,0,1,1.04.625A3.131,3.131,0,0,1,6.2,5.558a4.4,4.4,0,0,1,.286,1.678A4.4,4.4,0,0,1,6.2,8.915a3.118,3.118,0,0,1-.755,1.119,2.684,2.684,0,0,1-1.04.6A3.976,3.976,0,0,1,3.244,10.811Zm0-6.728a1.778,1.778,0,0,0-.988.261,1.93,1.93,0,0,0-.64.7,3.337,3.337,0,0,0-.34,1.01,6.924,6.924,0,0,0,0,2.354,3.32,3.32,0,0,0,.34,1.01,1.924,1.924,0,0,0,.64.7,1.777,1.777,0,0,0,.988.262,1.776,1.776,0,0,0,.987-.262,1.925,1.925,0,0,0,.641-.7,3.32,3.32,0,0,0,.34-1.01,6.8,6.8,0,0,0,.1-1.177,6.8,6.8,0,0,0-.1-1.177,3.337,3.337,0,0,0-.34-1.01,1.931,1.931,0,0,0-.641-.7A1.776,1.776,0,0,0,3.244,4.083ZM2.9,2.514H2.336L4.3.348A.878.878,0,0,1,4.9,0a.485.485,0,0,1,.286.116.411.411,0,0,1,.154.349.546.546,0,0,1-.16.414,3.1,3.1,0,0,1-.32.268L2.9,2.514Z" transform="translate(81.081 57.297)" fill="#fefefe"/>
    <path id="Fill_60" data-name="Fill 60" d="M3.171,1.412a.945.945,0,0,0-.854-.6,1.152,1.152,0,0,0-1.094.671A4.179,4.179,0,0,0,.876,3.37V4.7q0,.7.016,1.474t.069,1.4a3.733,3.733,0,0,0-.961,0q.054-.624.07-1.4T.086,4.7V3.074q0-.7-.016-1.474T0,.156A2,2,0,0,0,.481.234.833.833,0,0,0,.667.211L.908.156Q.876.781.876,1.4H.9A2.964,2.964,0,0,1,1.615.367a1.461,1.461,0,0,1,1-.367,1.593,1.593,0,0,1,.6.125,1.392,1.392,0,0,1,.552.429,2.388,2.388,0,0,1,.4.827,4.8,4.8,0,0,1,.155,1.334q0,.671-.021,1.381T4.282,5.6V6.616q0,.25.006.491c0,.162.009.315.016.461a3.133,3.133,0,0,0-.454-.031,3.062,3.062,0,0,0-.443.031q.022-.811.048-1.669t.027-1.763V3.183a3.982,3.982,0,0,0-.31-1.771" transform="translate(89.73 60.541)" fill="#fefefe"/>
    <g id="Group_64" data-name="Group 64" transform="translate(27.027 71.351)">
      <path id="Clip_63-2" data-name="Clip 63" d="M0,0H6.424V8.587H0Z" transform="translate(0.013 0.062)" fill="none"/>
      <g id="Group_64-2" data-name="Group 64" clip-path="url(#clip-path-2)">
        <path id="Fill_62" data-name="Fill 62" d="M5.909,8.147a2.757,2.757,0,0,1-.51.2q-.3.09-.667.162a3.994,3.994,0,0,1-.771.072,4.5,4.5,0,0,1-1.584-.271,3.287,3.287,0,0,1-1.253-.825A3.924,3.924,0,0,1,.3,6.136,5.2,5.2,0,0,1,0,4.311,5.2,5.2,0,0,1,.3,2.487a3.847,3.847,0,0,1,.836-1.355A3.544,3.544,0,0,1,2.42.289,4.541,4.541,0,0,1,4.07,0,4.934,4.934,0,0,1,5.377.163,5.724,5.724,0,0,1,6.424.554a1.7,1.7,0,0,0-.141.458c-.036.192-.065.353-.087.482l-.065.024a2.532,2.532,0,0,0-.3-.325A3.326,3.326,0,0,0,5.372.843,2.759,2.759,0,0,0,4.786.56,2.153,2.153,0,0,0,4.07.446,3.054,3.054,0,0,0,2.881.674a2.523,2.523,0,0,0-.955.7,3.377,3.377,0,0,0-.635,1.2,5.815,5.815,0,0,0-.228,1.728A5.815,5.815,0,0,0,1.292,6.04a3.375,3.375,0,0,0,.635,1.2,2.524,2.524,0,0,0,.955.7,3.05,3.05,0,0,0,1.188.229,2.3,2.3,0,0,0,.722-.108A3.637,3.637,0,0,0,5.4,7.81a3.572,3.572,0,0,0,.5-.325q.222-.174.374-.307l.043.048-.1.71a1.4,1.4,0,0,1-.309.211" transform="translate(0.013 0.062)" fill="#fefefe"/>
      </g>
    </g>
    <path id="Fill_65" data-name="Fill 65" d="M3.536,5.343Q2.126,3.651.716,1.977q-.011.339-.022.91T.683,4.44q0,.255.005.63T.7,5.859Q.7,6.271.716,6.7t.022.788q.011.364.022.637c.007.182.014.305.022.37A2.749,2.749,0,0,0,.4,8.467a3.077,3.077,0,0,0-.4.024c.014-.081.031-.231.049-.449S.083,7.563.1,7.26s.031-.632.049-.989S.179,5.56.19,5.2s.02-.7.027-1.043.011-.643.011-.91q0-1.165-.005-2T.2,0H.369L1.784,1.716q.754.916,1.5,1.807T4.691,5.21Q5.359,6,5.857,6.562V4.913q0-1.273-.016-2.48T5.771.158a1.4,1.4,0,0,0,.369.061A1.356,1.356,0,0,0,6.486.158q-.022.267-.049.8T6.384,2.1q-.027.607-.049,1.189t-.022.934v.728q0,.412.006.861t.011.9q.005.455.011.849t.005.686v.4H6.194Q4.946,7.036,3.536,5.343" transform="translate(34.595 71.351)" fill="#fefefe"/>
    <path id="Fill_67" data-name="Fill 67" d="M.884,7.568h0a3.964,3.964,0,0,0-.441-.021A4.2,4.2,0,0,0,0,7.567C.618,6.361,1.254,5.1,1.889,3.805,2.493,2.58,3.116,1.3,3.742,0h.227L4.24.59l.351.766c.257.561.474,1.03.681,1.476s.447.961.693,1.481c.213.45.432.91.652,1.367.2.4.38.785.55,1.13s.3.583.4.754a2.817,2.817,0,0,0-.315-.019H6.617a2.46,2.46,0,0,0-.316.021c-.057-.165-.133-.367-.228-.6s-.193-.459-.317-.735l-.171-.376-.013-.029L5.4,5.454c-.113-.248-.226-.5-.335-.751-.242-.007-.5-.012-.777-.016s-.529-.005-.789-.005-.491,0-.729.005-.483.009-.73.016c-.26.575-.487,1.1-.693,1.606S.988,7.238.885,7.567ZM3.575,1.46l-1.3,2.746c.228,0,.44,0,.645.011.222.007.44.011.646.011.222,0,.447,0,.669-.005s.447-.009.67-.016L3.575,1.46Z" transform="translate(42.162 72.432)" fill="#fefefe"/>
    <path id="Clip_70-2" data-name="Clip 70" d="M0,80H103.784V0H0Z" fill="none"/>
    <g id="Enmascarar_grupo_1" data-name="Enmascarar grupo 1" clip-path="url(#clip-path-3)">
      <path id="Fill_69" data-name="Fill 69" d="M0,1.081H3.243V0H0Z" transform="translate(49.73 76.757)" fill="#fefefe"/>
      <path id="Fill_71" data-name="Fill 71" d="M5.966,8.206a2.787,2.787,0,0,1-.515.206q-.3.091-.674.163A4.043,4.043,0,0,1,4,8.649a4.554,4.554,0,0,1-1.6-.273,3.32,3.32,0,0,1-1.265-.831A3.947,3.947,0,0,1,.3,6.18,5.217,5.217,0,0,1,0,4.342,5.219,5.219,0,0,1,.3,2.5,3.87,3.87,0,0,1,1.145,1.14a3.579,3.579,0,0,1,1.3-.849A4.59,4.59,0,0,1,4.109,0,5,5,0,0,1,5.429.164,5.791,5.791,0,0,1,6.486.558a1.7,1.7,0,0,0-.143.461c-.037.194-.065.356-.087.485l-.066.024A2.563,2.563,0,0,0,5.884,1.2a3.36,3.36,0,0,0-.46-.351A2.781,2.781,0,0,0,4.832.564,2.177,2.177,0,0,0,4.109.449a3.09,3.09,0,0,0-1.2.23,2.551,2.551,0,0,0-.964.71A3.4,3.4,0,0,0,1.3,2.6a5.843,5.843,0,0,0-.231,1.741A5.842,5.842,0,0,0,1.3,6.083,3.4,3.4,0,0,0,1.945,7.3a2.552,2.552,0,0,0,.964.709,3.086,3.086,0,0,0,1.2.23,2.333,2.333,0,0,0,.729-.109,3.677,3.677,0,0,0,.613-.261,3.619,3.619,0,0,0,.5-.328c.149-.117.276-.22.378-.309l.044.049-.1.716a1.409,1.409,0,0,1-.312.212" transform="translate(54.054 71.351)" fill="#fefefe"/>
      <path id="Fill_72" data-name="Fill 72" d="M.08,2.455Q.074,2,.064,1.548T.037.694Q.021.287,0,0A2.664,2.664,0,0,0,.48.057,2.669,2.669,0,0,0,.961,0C.947.191.935.42.924.688S.9,1.237.9,1.531s-.013.591-.016.889-.006.573-.006.826v.872H.9a2.321,2.321,0,0,1,.718-.763,1.8,1.8,0,0,1,1-.27,2.1,2.1,0,0,1,.6.092,1.425,1.425,0,0,1,.551.316,1.632,1.632,0,0,1,.4.608,2.645,2.645,0,0,1,.155.98q0,.493-.021,1.015T4.282,7.2v.746q0,.184.005.361t.016.338a4.3,4.3,0,0,0-.454-.023,4.186,4.186,0,0,0-.443.023q.021-.6.048-1.227t.027-1.3v-.7a2.266,2.266,0,0,0-.31-1.3.988.988,0,0,0-.854-.442,1.246,1.246,0,0,0-1.094.493A2.385,2.385,0,0,0,.875,5.563q0,.321.006.746T.9,7.163q.01.43.027.832c.011.268.023.486.037.654Q.715,8.626.48,8.626T0,8.649q.021-.263.037-.666t.027-.849q.01-.447.016-.906T.085,5.38V3.3q0-.39-.005-.849" transform="translate(61.622 71.351)" fill="#fefefe"/>
      <path id="Fill_73" data-name="Fill 73" d="M.062,7.567h0c.036-.28.059-.6.07-.966.011-.355.016-.7.016-1.022V4.454c0-.323-.005-.667-.016-1.022s-.034-.694-.069-1a2.81,2.81,0,0,0,.477.054,2.82,2.82,0,0,0,.478-.054c-.035.3-.058.628-.069,1-.011.355-.016.7-.016,1.022V5.578c0,.323.005.667.016,1.022s.034.682.069.966C.862,7.553.7,7.547.54,7.547s-.322.007-.477.021ZM.54,1.1A.515.515,0,0,1,.159.941.537.537,0,0,1,0,.552.538.538,0,0,1,.159.162.515.515,0,0,1,.54,0,.52.52,0,0,1,.923.162a.541.541,0,0,1,.158.39A.54.54,0,0,1,.923.941.52.52,0,0,1,.54,1.1Z" transform="translate(68.108 72.432)" fill="#fefefe"/>
      <path id="Fill_74" data-name="Fill 74" d="M.09,2.455Q.084,2,.072,1.548T.042.694C.03.423.016.191,0,0A3.361,3.361,0,0,0,.541.057,3.368,3.368,0,0,0,1.081,0q-.024.287-.042.694t-.03.855Q1,2,.991,2.455T.985,3.3V5.38q0,.39.006.849t.018.906q.011.447.03.849t.042.666C.9,8.633.717,8.626.541,8.626S.184,8.633,0,8.649c.016-.176.03-.4.042-.666s.022-.55.03-.849.014-.6.018-.906S.1,5.64.1,5.38V3.3q0-.39-.006-.849" transform="translate(70.27 71.351)" fill="#fefefe"/>
      <path id="Fill_75" data-name="Fill 75" d="M2.41,5.405a2.574,2.574,0,0,1-.977-.18A2.158,2.158,0,0,1,.67,4.7a2.392,2.392,0,0,1-.5-.813A2.914,2.914,0,0,1,0,2.872,3.43,3.43,0,0,1,.581.764,2,2,0,0,1,2.272,0a2.125,2.125,0,0,1,.907.18,1.918,1.918,0,0,1,.64.481,1.96,1.96,0,0,1,.382.7,2.93,2.93,0,0,1,.124.862c0,.066,0,.136,0,.213,0,.062-.008.132-.015.212L3.244,2.632c-.349-.007-.706-.011-1.061-.011-.217,0-.436,0-.65.011l-.65.022a1.051,1.051,0,0,0-.01.164v.142a2.7,2.7,0,0,0,.114.8,1.855,1.855,0,0,0,.332.638,1.6,1.6,0,0,0,.535.427,1.635,1.635,0,0,0,.734.158A1.449,1.449,0,0,0,3,4.919,2.139,2.139,0,0,0,3.4,4.756a2.187,2.187,0,0,0,.372-.246,1.959,1.959,0,0,0,.3-.306l.05.033-.06.535a2.7,2.7,0,0,1-.739.448A2.362,2.362,0,0,1,2.41,5.405ZM2.291.349a1.02,1.02,0,0,0-.62.186A1.532,1.532,0,0,0,1.255,1a2.324,2.324,0,0,0-.248.612,3.517,3.517,0,0,0-.1.627l.64.023c.22.007.439.011.65.011s.44,0,.664-.011l.654-.023a4.633,4.633,0,0,0-.044-.622A2.106,2.106,0,0,0,3.288,1,1.27,1.27,0,0,0,2.916.536.988.988,0,0,0,2.291.349Z" transform="translate(73.514 74.595)" fill="#fefefe"/>
      <path id="Fill_76" data-name="Fill 76" d="M28.848.752,40,26.181l-7.714,5.794L22.71,10.031,10.434,39.122l-.491.5L8.961,40H.245L0,39.875,16.572.5l.491-.5H28.357l.215.219Z" transform="translate(21.622)" fill="#fefefe"/>
      <path id="Stroke_77" data-name="Stroke 77" d="M28.848.752,40,26.181l-7.714,5.794L22.71,10.031,10.434,39.122l-.491.5L8.961,40H.245L0,39.875,16.572.5l.491-.5H28.357l.215.219Z" transform="translate(21.622)" fill="none" stroke="#fefefe" stroke-miterlimit="10" stroke-width="1"/>
      <path id="Fill_78" data-name="Fill 78" d="M9.778,0,0,7.568l12.973-.013Z" transform="translate(44.324 32.432)" fill="#fefefe"/>
      <path id="Stroke_79" data-name="Stroke 79" d="M9.778,0,0,7.568l12.973-.013Z" transform="translate(44.324 32.432)" fill="none" stroke="#fefefe" stroke-miterlimit="10" stroke-width="1"/>
      <path id="Fill_80" data-name="Fill 80" d="M0,16.49,20.541,0,7.067,30.27H6.425L6.1,29.957Z" transform="translate(61.622 9.73)" fill="#fefefe"/>
      <path id="Stroke_81" data-name="Stroke 81" d="M0,16.49,20.541,0,7.067,30.27H6.425L6.1,29.957Z" transform="translate(61.622 9.73)" fill="none" stroke="#fefefe" stroke-miterlimit="10" stroke-width="1"/>
    </g>
  </g>
</svg>
